<svg id="svg" version="1.1" xmlns="http://www.w3.org/2000/svg" xmlns:xlink="http://www.w3.org/1999/xlink" width="400" height="193.06640625" viewBox="0, 0, 400,193.06640625"><g id="svgg"><path id="path0" d="M215.792 61.291 C 216.731 61.321,218.269 61.321,219.208 61.291 C 220.148 61.261,219.379 61.237,217.500 61.237 C 215.621 61.237,214.852 61.261,215.792 61.291 M205.625 61.456 C 206.106 61.490,206.894 61.490,207.375 61.456 C 207.856 61.423,207.463 61.395,206.500 61.395 C 205.537 61.395,205.144 61.423,205.625 61.456 M227.208 61.456 C 227.644 61.490,228.356 61.490,228.792 61.456 C 229.227 61.422,228.871 61.393,228.000 61.393 C 227.129 61.393,226.773 61.422,227.208 61.456 M200.458 61.621 C 200.756 61.658,201.244 61.658,201.542 61.621 C 201.840 61.584,201.596 61.553,201.000 61.553 C 200.404 61.553,200.160 61.584,200.458 61.621 M232.461 61.621 C 232.761 61.658,233.211 61.657,233.461 61.619 C 233.712 61.581,233.467 61.551,232.917 61.552 C 232.367 61.553,232.162 61.584,232.461 61.621 M191.044 62.120 C 191.297 62.158,191.672 62.157,191.877 62.117 C 192.082 62.078,191.875 62.046,191.417 62.048 C 190.958 62.049,190.791 62.081,191.044 62.120 M240.458 62.118 C 240.665 62.157,241.002 62.157,241.208 62.118 C 241.415 62.078,241.246 62.045,240.833 62.045 C 240.421 62.045,240.252 62.078,240.458 62.118 M184.127 62.618 C 184.334 62.658,184.634 62.656,184.794 62.615 C 184.953 62.573,184.783 62.540,184.417 62.542 C 184.050 62.544,183.920 62.578,184.127 62.618 M182.042 62.782 C 182.202 62.823,182.465 62.823,182.625 62.782 C 182.785 62.740,182.654 62.705,182.333 62.705 C 182.012 62.705,181.881 62.740,182.042 62.782 M176.542 63.282 C 176.702 63.323,176.965 63.323,177.125 63.282 C 177.285 63.240,177.154 63.205,176.833 63.205 C 176.512 63.205,176.381 63.240,176.542 63.282 M211.708 86.448 C 211.869 86.490,212.131 86.490,212.292 86.448 C 212.452 86.406,212.321 86.372,212.000 86.372 C 211.679 86.372,211.548 86.406,211.708 86.448 M209.708 86.615 C 209.869 86.657,210.131 86.657,210.292 86.615 C 210.452 86.573,210.321 86.539,210.000 86.539 C 209.679 86.539,209.548 86.573,209.708 86.615 M148.960 87.118 C 149.168 87.158,149.468 87.156,149.627 87.115 C 149.786 87.073,149.617 87.040,149.250 87.042 C 148.883 87.044,148.753 87.078,148.960 87.118 M203.125 87.118 C 203.331 87.157,203.669 87.157,203.875 87.118 C 204.081 87.078,203.912 87.045,203.500 87.045 C 203.088 87.045,202.919 87.078,203.125 87.118 M155.542 87.619 C 155.794 87.658,156.206 87.658,156.458 87.619 C 156.710 87.581,156.504 87.550,156.000 87.550 C 155.496 87.550,155.290 87.581,155.542 87.619 M194.628 87.621 C 194.928 87.658,195.378 87.657,195.628 87.619 C 195.878 87.581,195.633 87.551,195.083 87.552 C 194.533 87.553,194.328 87.584,194.628 87.621 M191.375 87.782 C 191.535 87.823,191.798 87.823,191.958 87.782 C 192.119 87.740,191.987 87.705,191.667 87.705 C 191.346 87.705,191.215 87.740,191.375 87.782 M171.303 88.125 C 173.257 88.152,176.407 88.151,178.303 88.125 C 180.199 88.098,178.600 88.076,174.750 88.076 C 170.900 88.076,169.349 88.098,171.303 88.125 M24.653 99.827 C 21.483 100.246,19.333 102.944,19.333 106.502 C 19.333 107.014,19.181 108.105,18.995 108.925 C 18.635 110.516,18.352 111.823,17.933 113.833 C 17.635 115.267,17.281 116.912,16.412 120.917 C 16.074 122.475,15.703 124.200,15.588 124.750 C 15.473 125.300,15.097 126.987,14.752 128.500 C 14.408 130.012,14.036 131.662,13.926 132.167 L 13.725 133.083 20.701 133.038 L 27.678 132.993 27.835 132.580 C 28.038 132.046,28.549 132.046,28.899 132.580 L 29.170 132.993 36.819 133.038 C 41.883 133.068,44.437 133.027,44.374 132.917 C 44.270 132.732,42.172 129.681,41.967 129.417 C 41.896 129.325,41.660 129.025,41.441 128.750 C 40.606 127.697,39.106 125.387,38.810 124.695 C 38.190 123.248,38.283 123.128,42.417 120.058 C 47.975 115.931,49.719 114.403,51.205 112.359 C 55.390 106.605,46.427 100.210,40.997 105.075 C 40.582 105.446,39.610 106.313,38.835 107.000 C 38.061 107.688,36.349 109.263,35.031 110.500 C 31.484 113.829,31.288 113.607,32.751 107.917 C 34.196 102.297,33.294 100.377,29.036 99.998 C 25.798 99.711,25.591 99.703,24.653 99.827 M73.083 100.120 C 70.196 101.286,66.822 105.939,61.749 115.750 C 57.863 123.265,56.410 125.843,53.762 129.917 C 53.166 130.833,52.463 131.921,52.200 132.333 L 51.721 133.083 69.027 133.040 L 86.333 132.997 86.333 132.516 C 86.333 131.722,86.009 128.732,85.653 126.250 C 85.354 124.165,85.111 122.734,84.496 119.417 C 84.294 118.326,83.086 112.357,82.742 110.750 C 82.625 110.200,82.292 108.513,82.002 107.000 C 81.262 103.127,81.056 102.465,80.348 101.683 C 79.038 100.235,74.966 99.359,73.083 100.120 M144.009 100.376 C 143.134 100.799,141.247 102.536,140.254 103.832 C 137.856 106.959,136.381 109.460,132.292 117.333 C 129.689 122.346,129.187 123.287,128.384 124.667 C 127.665 125.902,125.771 128.931,123.772 132.042 L 123.156 133.000 140.435 133.000 L 157.714 133.000 157.604 131.458 C 157.394 128.541,156.239 121.263,155.149 116.000 C 154.780 114.212,154.030 110.549,153.485 107.860 C 152.431 102.667,152.341 102.383,151.473 101.550 C 150.006 100.144,145.841 99.488,144.009 100.376 M268.229 100.508 C 265.529 101.844,262.391 106.306,257.333 116.001 C 256.210 118.154,254.811 120.836,254.224 121.959 C 252.931 124.439,251.686 126.528,249.306 130.213 C 248.313 131.751,247.500 133.026,247.500 133.047 C 247.500 133.067,255.219 133.064,264.654 133.040 C 280.906 132.999,281.812 133.012,281.885 133.290 C 282.202 134.507,281.656 128.695,281.168 125.667 C 280.597 122.120,279.775 117.703,278.998 114.000 C 277.935 108.929,277.672 107.628,277.105 104.625 C 276.720 102.584,276.103 101.642,274.682 100.927 C 273.020 100.090,269.530 99.863,268.229 100.508 M333.500 102.011 C 330.036 102.258,329.554 102.624,328.432 105.848 C 325.635 113.888,325.567 114.147,324.574 120.500 C 324.493 121.023,323.802 124.278,323.000 127.917 C 322.838 128.650,322.502 130.174,322.254 131.304 C 322.005 132.433,321.846 133.402,321.901 133.456 C 321.955 133.511,322.000 133.431,322.000 133.278 C 322.000 133.021,323.056 133.000,336.167 133.000 L 350.333 133.000 350.333 132.347 C 350.333 130.271,347.794 129.837,342.417 130.992 C 336.411 132.282,335.715 132.180,336.016 130.056 C 336.258 128.349,336.063 128.420,340.548 128.393 C 346.215 128.358,347.437 127.817,348.084 125.056 C 348.209 124.521,348.619 123.146,348.995 122.000 C 349.433 120.665,349.715 119.455,349.780 118.630 L 349.882 117.344 349.399 117.147 C 349.081 117.017,347.492 116.938,344.738 116.915 C 339.054 116.867,338.157 116.571,338.700 114.919 C 339.061 113.819,339.116 113.810,344.750 113.929 C 354.113 114.128,354.588 113.832,355.660 107.128 C 356.219 103.634,356.124 103.230,354.556 102.439 C 353.672 101.993,338.163 101.678,333.500 102.011 M294.500 102.935 C 290.719 103.340,290.125 104.119,288.736 110.500 C 288.587 111.188,288.361 112.200,288.235 112.750 C 287.931 114.072,286.785 119.754,286.335 122.167 C 285.691 125.621,285.517 126.559,285.162 128.500 C 284.970 129.554,284.705 130.957,284.573 131.618 C 284.441 132.279,284.333 132.879,284.333 132.951 C 284.333 133.024,290.381 133.064,297.772 133.040 C 308.395 133.005,311.265 133.040,311.468 133.206 C 311.610 133.322,311.510 133.047,311.246 132.595 C 310.982 132.142,310.837 131.749,310.925 131.720 C 316.844 129.746,322.624 119.672,321.682 112.968 C 320.615 105.372,315.647 102.913,301.583 103.018 C 299.200 103.036,296.762 103.011,296.167 102.962 C 295.571 102.912,294.821 102.900,294.500 102.935 M204.500 104.748 C 199.316 106.908,196.262 109.913,193.333 115.735 C 191.297 119.784,190.072 120.812,187.502 120.628 C 184.834 120.437,183.546 119.056,182.331 115.083 C 180.617 109.483,178.465 108.061,171.901 108.193 C 167.854 108.275,166.328 109.008,165.242 111.392 C 164.835 112.286,164.733 112.661,164.157 115.417 C 163.565 118.247,162.364 123.456,161.085 128.750 C 160.863 129.667,160.522 131.079,160.327 131.889 C 160.131 132.698,160.016 133.404,160.069 133.458 C 160.123 133.512,160.167 133.431,160.167 133.278 C 160.167 133.023,160.733 133.000,167.000 133.000 C 170.758 133.000,173.835 132.944,173.836 132.875 C 173.838 132.806,173.945 132.253,174.073 131.644 C 174.202 131.036,174.430 129.686,174.580 128.644 C 174.995 125.755,175.596 124.593,176.143 125.625 C 176.433 126.174,177.307 131.593,177.332 133.000 C 177.333 133.046,180.783 133.063,185.000 133.038 C 189.217 133.014,192.667 133.037,192.667 133.091 C 192.667 133.145,192.582 133.352,192.480 133.553 C 192.377 133.753,192.366 133.842,192.455 133.750 C 192.544 133.658,193.086 132.687,193.659 131.591 C 196.445 126.261,197.533 125.793,196.500 130.368 C 195.862 133.197,195.809 133.461,195.929 133.208 C 196.006 133.047,197.537 133.000,202.753 133.000 C 209.200 133.000,209.482 132.987,209.577 132.685 C 209.688 132.338,210.026 130.559,210.422 128.250 C 210.704 126.603,211.530 122.299,211.942 120.333 C 212.086 119.646,212.769 116.833,213.460 114.083 C 215.766 104.908,215.502 104.301,209.167 104.206 L 205.917 104.157 204.500 104.748 M373.083 104.349 C 363.195 105.755,356.455 111.785,356.426 119.250 C 356.412 122.675,356.878 123.439,360.296 125.598 C 363.560 127.661,366.663 130.387,367.913 132.292 L 368.378 133.000 376.772 133.000 C 383.057 133.000,385.167 133.049,385.167 133.194 C 385.167 133.301,385.212 133.344,385.267 133.289 C 385.322 133.233,385.237 132.790,385.077 132.302 C 384.015 129.059,381.434 126.376,375.326 122.167 C 370.077 118.549,369.065 116.895,370.990 115.083 C 371.692 114.423,373.020 114.420,374.750 115.076 C 377.993 116.305,378.329 116.408,381.333 117.092 C 387.753 118.554,389.875 116.075,389.067 108.060 C 388.905 106.453,387.472 105.296,385.000 104.776 C 382.582 104.268,375.455 104.012,373.083 104.349 M97.417 104.977 C 95.117 105.593,94.664 106.217,93.647 110.167 C 92.785 113.512,90.972 122.404,89.737 129.333 C 89.599 130.112,89.372 131.340,89.234 132.061 C 89.095 132.781,89.024 133.413,89.074 133.463 C 89.125 133.514,89.167 133.431,89.167 133.278 C 89.167 133.021,90.176 133.000,102.645 133.000 L 116.124 133.000 117.589 131.958 C 123.461 127.784,126.485 122.091,126.109 115.917 C 125.726 109.620,122.552 106.436,115.544 105.322 C 113.258 104.959,98.530 104.678,97.417 104.977 M222.500 105.013 C 219.143 105.445,219.042 105.619,216.916 114.583 C 216.652 115.697,215.198 123.040,214.755 125.500 C 214.598 126.371,214.368 127.608,214.245 128.250 C 213.469 132.288,213.316 133.205,213.403 133.292 C 213.456 133.345,213.500 133.301,213.500 133.194 C 213.500 133.048,216.793 133.000,226.865 133.000 C 239.051 133.000,240.202 133.023,239.907 133.262 C 239.328 133.732,240.051 133.300,241.562 132.273 C 248.508 127.555,251.690 120.369,249.991 113.235 C 248.827 108.343,245.184 105.937,237.917 105.259 C 235.204 105.005,223.952 104.826,222.500 105.013 M303.130 114.585 C 307.741 115.672,308.163 120.475,303.929 123.672 C 302.325 124.883,298.655 125.881,298.894 125.042 C 298.965 124.793,299.558 121.727,300.588 116.288 C 300.723 115.576,300.833 114.845,300.833 114.663 C 300.833 114.249,301.595 114.223,303.130 114.585 M108.834 116.872 C 113.821 119.084,109.974 127.167,103.934 127.167 L 103.237 127.167 103.613 125.292 C 104.081 122.961,104.420 121.136,104.846 118.667 C 105.028 117.612,105.214 116.646,105.259 116.518 C 105.391 116.144,107.710 116.373,108.834 116.872 M232.736 116.843 C 238.151 118.870,234.970 126.586,228.434 127.281 C 227.459 127.385,227.451 127.383,227.550 126.985 C 227.774 126.085,228.835 120.603,229.188 118.523 L 229.565 116.297 230.728 116.411 C 231.367 116.474,232.271 116.668,232.736 116.843 M71.329 120.159 C 71.738 120.960,73.000 125.260,73.000 125.852 C 73.000 126.666,72.036 126.874,69.101 126.694 C 66.593 126.541,66.626 126.700,68.330 123.008 C 70.220 118.911,70.538 118.609,71.329 120.159 M142.473 119.875 C 142.849 120.488,144.136 124.563,144.277 125.589 C 144.423 126.658,144.207 126.746,141.349 126.773 C 137.583 126.810,137.636 127.282,140.687 120.884 C 141.451 119.283,141.939 119.007,142.473 119.875 M266.829 120.158 C 267.319 121.119,268.667 125.476,268.667 126.100 C 268.667 126.812,267.452 127.039,264.583 126.863 C 262.224 126.718,262.235 126.778,263.909 123.282 C 264.601 121.837,265.167 120.613,265.167 120.562 C 265.167 119.587,266.386 119.291,266.829 120.158 M86.396 134.917 C 86.396 135.925,86.424 136.316,86.457 135.786 C 86.490 135.255,86.490 134.430,86.456 133.952 C 86.422 133.474,86.395 133.908,86.396 134.917 M385.385 134.750 C 385.386 135.300,385.417 135.505,385.454 135.205 C 385.491 134.906,385.490 134.456,385.452 134.205 C 385.414 133.955,385.384 134.200,385.385 134.750 M157.718 135.083 C 157.719 135.633,157.750 135.838,157.787 135.539 C 157.825 135.239,157.824 134.789,157.786 134.539 C 157.748 134.288,157.717 134.533,157.718 135.083 M70.375 134.953 C 70.627 134.991,71.040 134.991,71.292 134.953 C 71.544 134.915,71.337 134.883,70.833 134.883 C 70.329 134.883,70.123 134.915,70.375 134.953 M298.167 134.898 C 298.167 134.934,298.424 134.994,298.738 135.030 C 299.053 135.067,299.273 135.038,299.228 134.965 C 299.148 134.835,298.167 134.773,298.167 134.898 M138.208 135.123 C 138.735 135.156,139.598 135.156,140.125 135.123 C 140.652 135.090,140.221 135.063,139.167 135.063 C 138.112 135.063,137.681 135.090,138.208 135.123 M266.042 135.119 C 266.294 135.158,266.706 135.158,266.958 135.119 C 267.210 135.081,267.004 135.050,266.500 135.050 C 265.996 135.050,265.790 135.081,266.042 135.119 M104.460 136.785 C 104.668 136.824,104.968 136.823,105.127 136.781 C 105.286 136.739,105.117 136.707,104.750 136.709 C 104.383 136.711,104.253 136.745,104.460 136.785 M281.875 137.417 C 281.877 137.783,281.911 137.914,281.951 137.706 C 281.991 137.499,281.990 137.199,281.948 137.040 C 281.906 136.880,281.874 137.050,281.875 137.417 M73.556 138.500 C 73.556 139.188,73.585 139.469,73.621 139.125 C 73.657 138.781,73.657 138.219,73.621 137.875 C 73.585 137.531,73.556 137.813,73.556 138.500 M189.957 137.757 C 189.705 137.990,189.500 138.229,189.500 138.288 C 189.500 138.347,189.725 138.180,190.000 137.917 C 190.459 137.476,190.572 137.333,190.457 137.333 C 190.433 137.333,190.208 137.524,189.957 137.757 M188.500 139.417 C 188.095 139.829,187.801 140.167,187.847 140.167 C 187.893 140.167,188.262 139.829,188.667 139.417 C 189.072 139.004,189.365 138.667,189.319 138.667 C 189.274 138.667,188.905 139.004,188.500 139.417 M269.221 139.750 C 269.222 140.392,269.252 140.634,269.288 140.288 C 269.324 139.942,269.324 139.417,269.287 139.121 C 269.250 138.825,269.221 139.108,269.221 139.750 M359.875 138.782 C 360.035 138.823,360.298 138.823,360.458 138.782 C 360.619 138.740,360.488 138.705,360.167 138.705 C 359.846 138.705,359.715 138.740,359.875 138.782 M320.872 139.500 C 320.872 139.821,320.906 139.952,320.948 139.792 C 320.990 139.631,320.990 139.369,320.948 139.208 C 320.906 139.048,320.872 139.179,320.872 139.500 M183.375 141.288 C 183.719 141.324,184.281 141.324,184.625 141.288 C 184.969 141.252,184.688 141.223,184.000 141.223 C 183.313 141.223,183.031 141.252,183.375 141.288 M317.052 143.583 C 317.053 144.133,317.084 144.338,317.121 144.039 C 317.158 143.739,317.157 143.289,317.119 143.039 C 317.081 142.788,317.051 143.033,317.052 143.583 M45.375 145.250 C 45.377 145.617,45.411 145.747,45.451 145.540 C 45.491 145.332,45.490 145.032,45.448 144.873 C 45.406 144.714,45.374 144.883,45.375 145.250 M326.621 145.287 C 326.917 145.324,327.442 145.324,327.788 145.288 C 328.134 145.252,327.892 145.222,327.250 145.221 C 326.608 145.221,326.325 145.250,326.621 145.287 M329.375 145.288 C 329.719 145.324,330.281 145.324,330.625 145.288 C 330.969 145.252,330.688 145.223,330.000 145.223 C 329.313 145.223,329.031 145.252,329.375 145.288 M193.039 146.167 C 193.039 146.487,193.073 146.619,193.115 146.458 C 193.157 146.298,193.157 146.035,193.115 145.875 C 193.073 145.715,193.039 145.846,193.039 146.167 M57.073 146.375 L 56.583 146.917 57.125 146.427 C 57.630 145.971,57.743 145.833,57.615 145.833 C 57.586 145.833,57.342 146.077,57.073 146.375 M49.542 147.615 C 49.702 147.657,49.965 147.657,50.125 147.615 C 50.285 147.573,50.154 147.539,49.833 147.539 C 49.512 147.539,49.381 147.573,49.542 147.615 M120.127 147.618 C 120.334 147.658,120.634 147.656,120.794 147.615 C 120.953 147.573,120.783 147.540,120.417 147.542 C 120.050 147.544,119.920 147.578,120.127 147.618 M192.879 149.000 C 192.879 149.412,192.911 149.581,192.951 149.375 C 192.991 149.169,192.991 148.831,192.951 148.625 C 192.911 148.419,192.879 148.587,192.879 149.000 M210.217 149.667 C 210.217 150.171,210.248 150.377,210.286 150.125 C 210.324 149.873,210.324 149.460,210.286 149.208 C 210.248 148.956,210.217 149.162,210.217 149.667 M15.213 149.789 C 15.652 149.824,16.327 149.823,16.713 149.788 C 17.100 149.754,16.742 149.725,15.917 149.726 C 15.092 149.726,14.775 149.755,15.213 149.789 M358.044 151.453 C 358.297 151.491,358.672 151.490,358.877 151.451 C 359.082 151.411,358.875 151.380,358.417 151.381 C 357.958 151.382,357.791 151.415,358.044 151.453 M287.128 151.621 C 287.428 151.658,287.878 151.657,288.128 151.619 C 288.378 151.581,288.133 151.551,287.583 151.552 C 287.033 151.553,286.828 151.584,287.128 151.621 " stroke="none" fill="#8bab4e" fill-rule="evenodd"></path><path id="path1" d="M213.167 60.414 C 213.029 60.452,210.854 60.519,208.333 60.562 C 203.315 60.650,197.400 60.886,193.250 61.164 C 191.783 61.263,189.533 61.414,188.250 61.501 C 176.105 62.323,162.918 63.798,153.417 65.400 C 149.379 66.080,147.820 66.353,146.750 66.566 C 146.108 66.694,144.796 66.955,143.833 67.145 C 140.702 67.765,136.668 68.744,132.417 69.915 C 118.466 73.761,113.792 78.826,120.819 82.483 C 124.810 84.559,133.822 86.592,142.667 87.412 C 143.262 87.467,144.387 87.586,145.167 87.675 C 146.799 87.862,152.309 88.246,157.500 88.533 C 162.137 88.790,185.055 88.790,190.417 88.533 C 197.048 88.216,203.699 87.848,204.583 87.750 C 205.042 87.699,206.879 87.547,208.667 87.411 C 215.860 86.867,228.014 85.552,232.417 84.842 C 232.967 84.754,234.167 84.567,235.083 84.428 C 240.322 83.632,242.388 83.273,247.250 82.310 C 284.814 74.870,283.585 64.595,244.750 61.419 C 243.100 61.284,241.375 61.134,240.917 61.086 C 240.458 61.038,238.321 60.920,236.167 60.824 C 234.012 60.728,231.950 60.620,231.583 60.583 C 230.636 60.489,213.468 60.332,213.167 60.414 M231.417 61.506 C 235.932 61.699,239.964 61.946,242.167 62.165 C 248.541 62.796,250.338 63.005,253.083 63.433 C 268.918 65.903,274.312 70.040,267.531 74.515 C 265.321 75.973,261.116 77.744,257.333 78.810 C 257.012 78.900,256.225 79.125,255.583 79.309 C 253.716 79.846,250.572 80.635,248.500 81.087 C 247.446 81.317,246.096 81.613,245.500 81.743 C 244.904 81.874,243.592 82.133,242.583 82.318 C 241.575 82.502,240.300 82.736,239.750 82.837 C 231.990 84.262,219.345 85.857,210.083 86.580 C 208.342 86.716,206.054 86.902,205.000 86.994 C 203.946 87.086,202.258 87.203,201.250 87.253 C 200.242 87.303,198.367 87.418,197.083 87.508 C 185.788 88.298,163.802 88.296,154.167 87.504 C 153.021 87.410,151.183 87.260,150.083 87.170 C 147.246 86.940,142.197 86.383,140.333 86.094 C 135.557 85.356,135.338 85.314,131.833 84.488 C 116.281 80.821,119.073 74.617,138.583 69.488 C 143.000 68.327,148.750 67.117,153.917 66.261 C 155.292 66.034,156.867 65.768,157.417 65.672 C 158.401 65.499,160.393 65.209,163.833 64.737 C 167.209 64.275,173.443 63.559,177.417 63.177 C 178.425 63.080,180.037 62.923,181.000 62.829 C 183.161 62.618,188.801 62.216,192.583 62.004 C 194.142 61.916,196.879 61.759,198.667 61.655 C 206.365 61.206,222.672 61.132,231.417 61.506 M24.000 95.098 C 20.892 95.666,18.451 97.101,16.691 99.395 C 16.325 99.872,15.334 101.879,15.326 102.159 C 15.322 102.301,15.209 102.717,15.075 103.083 C 14.941 103.450,14.724 104.688,14.591 105.833 C 14.370 107.752,14.169 108.894,13.580 111.583 C 13.460 112.133,13.206 113.333,13.016 114.250 C 12.826 115.167,12.557 116.404,12.419 117.000 C 12.175 118.051,12.044 118.660,11.339 122.000 C 11.156 122.871,10.891 124.071,10.751 124.667 C 10.611 125.263,10.348 126.462,10.167 127.333 C 9.986 128.204,9.731 129.367,9.600 129.917 C 9.469 130.467,9.238 131.442,9.086 132.083 C 8.933 132.725,8.668 133.850,8.497 134.583 C 8.325 135.317,8.073 136.367,7.937 136.917 C 7.800 137.467,7.540 138.554,7.359 139.333 C 7.178 140.112,6.875 141.162,6.686 141.667 C 4.919 146.379,6.172 150.918,9.833 153.066 C 10.762 153.611,12.230 154.162,12.781 154.172 C 12.947 154.176,12.708 154.356,12.250 154.574 C 10.999 155.168,9.971 156.234,9.336 157.597 C 8.745 158.867,8.691 159.016,8.442 160.083 C 8.313 160.633,7.816 162.583,7.337 164.417 C 6.192 168.800,5.905 170.043,5.069 174.250 C 4.551 176.857,3.867 183.603,4.097 183.826 C 4.962 184.661,8.667 186.083,10.583 186.314 C 15.816 186.947,18.616 184.829,19.908 179.261 C 20.017 178.791,20.045 178.819,20.636 180.001 C 23.642 186.012,32.581 187.281,38.917 182.596 C 39.773 181.963,39.801 181.961,40.371 182.534 C 43.905 186.090,49.498 186.429,55.377 183.445 C 56.856 182.695,57.031 182.642,57.294 182.872 C 59.274 184.605,64.336 184.394,68.797 182.395 C 69.281 182.178,69.706 182.000,69.741 182.000 C 69.777 182.000,70.382 181.659,71.086 181.243 C 74.783 179.058,77.802 175.930,79.203 172.833 C 80.085 170.886,80.135 170.760,80.397 169.833 C 83.022 160.542,78.187 154.607,68.000 154.615 C 64.195 154.619,62.563 155.112,60.616 156.847 C 60.105 157.303,59.651 157.588,59.566 157.507 C 56.847 154.921,50.461 155.053,46.459 157.778 C 45.741 158.267,45.108 158.667,45.051 158.667 C 44.994 158.667,44.714 158.845,44.428 159.063 L 43.909 159.460 43.246 158.799 C 41.013 156.573,35.388 154.734,33.747 155.695 C 33.657 155.748,33.208 155.845,32.750 155.911 C 32.292 155.977,31.842 156.089,31.750 156.160 C 31.136 156.634,30.591 156.610,30.087 156.087 C 28.723 154.671,27.671 154.369,23.583 154.223 C 20.368 154.108,20.280 154.096,21.083 153.876 C 21.542 153.751,22.067 153.583,22.250 153.502 C 22.433 153.421,22.958 153.197,23.417 153.003 C 24.845 152.400,26.879 150.720,28.131 149.110 C 28.502 148.634,29.494 146.644,29.694 145.974 C 29.923 145.211,29.987 145.194,30.419 145.792 C 32.788 149.070,35.638 150.130,39.904 149.321 L 41.725 148.975 42.251 149.550 C 43.555 150.972,45.136 151.780,47.083 152.018 C 47.817 152.107,48.924 152.252,49.545 152.340 C 55.522 153.187,60.288 151.328,62.169 147.417 C 62.478 146.775,63.410 145.200,64.240 143.916 C 65.071 142.633,65.975 141.152,66.250 140.625 L 66.750 139.668 67.792 139.667 C 68.833 139.667,68.833 139.667,68.833 140.156 C 68.833 145.095,72.100 147.463,78.698 147.310 L 81.285 147.250 81.276 149.333 C 81.256 153.706,83.346 156.518,87.337 157.488 C 89.884 158.108,90.167 158.167,90.591 158.167 L 91.011 158.167 90.612 158.875 C 90.393 159.265,90.056 159.862,89.863 160.203 C 89.449 160.934,86.917 165.788,86.448 166.750 C 86.270 167.117,85.857 167.829,85.532 168.333 C 85.207 168.837,84.632 169.737,84.254 170.333 C 83.876 170.929,83.289 171.847,82.950 172.372 C 82.611 172.898,82.333 173.366,82.333 173.412 C 82.333 173.458,82.014 174.078,81.625 174.789 C 78.103 181.221,80.715 185.496,88.170 185.499 C 91.041 185.501,93.506 184.222,94.762 182.078 C 95.202 181.327,95.377 181.290,95.833 181.853 C 96.194 182.297,97.568 182.721,99.155 182.878 C 100.949 183.056,101.263 183.200,101.806 184.100 C 103.543 186.980,111.389 186.840,114.292 183.878 C 115.158 182.994,115.174 182.986,115.792 183.164 C 116.939 183.494,119.987 183.668,121.245 183.475 C 122.731 183.247,122.893 183.255,123.546 183.585 C 125.431 184.538,130.708 183.912,133.667 182.384 C 133.896 182.266,134.144 182.168,134.218 182.168 C 134.344 182.167,137.390 180.416,137.750 180.137 C 147.217 172.814,148.861 160.447,140.917 156.304 C 137.580 154.564,131.166 153.924,128.446 155.060 C 127.990 155.251,127.844 155.253,127.595 155.072 C 126.370 154.176,121.572 153.915,119.605 154.637 L 118.627 154.996 118.140 154.587 C 115.208 152.120,108.773 152.309,106.103 154.941 C 105.389 155.644,105.282 155.700,105.136 155.439 C 104.884 154.990,103.063 153.707,102.501 153.584 C 101.888 153.449,101.738 153.232,102.021 152.892 C 102.595 152.200,103.625 150.018,104.134 148.417 C 104.680 146.697,104.959 145.487,105.521 142.406 L 105.706 141.396 107.228 141.199 C 108.704 141.008,111.733 140.220,112.750 139.762 C 113.828 139.277,114.308 139.275,113.850 139.758 C 113.689 139.928,112.825 141.891,112.313 143.248 C 110.780 147.316,113.936 151.618,118.865 152.177 C 127.786 153.188,131.425 151.912,133.782 146.943 C 133.993 146.500,134.593 145.487,135.117 144.693 C 136.278 142.931,137.039 141.697,137.616 140.636 L 138.053 139.833 139.110 139.833 C 139.842 139.833,140.168 139.897,140.170 140.042 C 140.256 145.488,143.918 147.920,151.189 147.361 L 152.628 147.250 152.718 148.238 C 152.885 150.084,154.365 152.393,156.076 153.479 L 156.835 153.960 156.043 154.157 C 152.754 154.975,150.148 158.157,149.346 162.333 C 149.098 163.628,148.696 165.367,148.326 166.750 C 146.222 174.610,146.039 178.255,147.591 181.343 C 149.820 185.777,157.928 186.844,164.560 183.576 C 165.393 183.166,165.787 183.053,165.994 183.164 C 167.809 184.135,174.146 184.453,176.229 183.677 C 176.424 183.605,176.958 183.493,177.417 183.429 C 178.347 183.300,180.127 182.833,181.980 182.232 C 182.656 182.013,183.240 181.833,183.277 181.833 C 183.315 181.833,183.483 182.156,183.652 182.550 C 185.448 186.740,193.384 187.404,197.165 183.681 C 197.716 183.139,198.167 182.613,198.167 182.512 C 198.167 182.411,198.448 182.515,198.792 182.742 C 200.833 184.093,206.662 184.576,209.859 183.659 C 210.780 183.395,210.895 183.458,211.369 184.476 C 213.269 188.560,220.029 189.587,223.696 186.349 L 224.475 185.661 225.196 186.140 C 227.356 187.575,230.751 187.479,233.446 185.906 C 234.056 185.551,234.346 185.500,235.780 185.500 C 239.013 185.500,241.735 184.115,242.771 181.942 L 243.040 181.378 244.097 182.021 C 245.417 182.822,247.416 183.136,249.624 182.887 L 250.999 182.733 251.532 183.283 C 254.640 186.489,261.833 186.545,266.612 183.400 C 267.483 182.827,267.903 182.708,268.075 182.986 C 268.258 183.283,270.427 183.863,271.990 184.033 C 276.395 184.512,285.358 182.627,286.905 180.897 C 288.769 178.813,289.588 172.901,288.323 170.660 L 287.896 169.903 288.240 168.814 C 288.469 168.088,288.814 167.463,289.275 166.941 C 289.888 166.247,290.099 165.889,290.668 164.583 C 291.039 163.730,291.341 162.222,291.509 160.382 L 291.692 158.373 291.245 157.490 C 290.999 157.004,290.683 156.493,290.543 156.353 C 290.333 156.143,290.329 156.088,290.519 156.039 C 294.755 154.959,297.516 152.337,299.335 147.667 C 299.639 146.887,299.946 146.183,300.018 146.101 C 300.090 146.019,300.538 146.769,301.014 147.767 C 302.900 151.723,304.629 153.438,307.197 153.900 L 307.810 154.011 307.101 154.741 L 306.391 155.472 303.994 155.322 C 298.571 154.982,295.748 156.811,294.719 161.333 C 294.583 161.929,294.369 162.867,294.244 163.417 C 294.119 163.967,293.899 164.904,293.756 165.500 C 293.612 166.096,293.345 167.296,293.163 168.167 C 292.980 169.037,292.714 170.237,292.571 170.833 C 292.428 171.429,292.174 172.554,292.006 173.333 C 291.837 174.112,291.576 175.313,291.424 176.000 C 290.844 178.627,290.802 178.956,290.872 180.333 C 291.196 186.712,301.538 188.768,305.014 183.144 C 305.095 183.014,305.312 183.026,305.772 183.189 C 306.795 183.550,311.909 183.506,312.641 183.130 L 313.199 182.843 313.954 183.419 C 317.502 186.128,322.985 186.112,328.145 183.378 L 329.206 182.815 329.464 183.199 C 331.777 186.638,339.364 188.359,343.609 186.408 C 343.897 186.275,344.189 186.167,344.257 186.167 C 344.324 186.167,344.745 185.942,345.192 185.667 C 345.994 185.173,346.500 185.034,346.500 185.306 C 346.500 185.383,346.931 185.652,347.458 185.904 C 347.985 186.157,348.546 186.431,348.705 186.514 C 350.493 187.451,359.189 187.423,360.242 186.476 C 360.329 186.397,360.495 186.333,360.612 186.333 C 361.138 186.333,363.314 185.146,364.586 184.165 C 365.424 183.518,365.551 183.470,365.939 183.647 C 367.425 184.324,372.268 184.219,376.000 183.429 C 378.754 182.846,379.225 182.718,381.101 182.041 L 382.785 181.433 383.557 180.287 C 385.238 177.789,385.673 172.535,384.381 170.323 C 384.159 169.942,384.161 169.812,384.399 169.109 C 384.546 168.676,384.667 168.209,384.667 168.071 C 384.667 167.933,384.976 167.508,385.355 167.125 C 386.581 165.887,387.365 163.754,387.668 160.833 C 387.767 159.871,387.885 158.962,387.928 158.814 C 388.047 158.414,387.080 156.642,386.282 155.796 C 384.848 154.277,383.411 153.783,380.474 153.799 C 379.313 153.805,378.008 153.759,377.573 153.697 L 376.783 153.583 377.266 153.337 C 382.020 150.911,387.321 144.886,389.220 139.750 C 391.363 133.953,389.812 128.343,384.728 123.499 L 383.417 122.250 384.083 122.304 C 389.111 122.715,393.263 118.796,393.867 113.071 C 394.534 106.750,393.081 103.090,389.167 101.227 C 388.479 100.899,387.781 100.561,387.615 100.475 C 387.095 100.205,382.883 99.692,379.583 99.497 C 373.066 99.113,368.134 100.035,363.056 102.589 C 361.879 103.181,360.908 103.665,360.897 103.666 C 360.886 103.666,360.841 103.348,360.796 102.958 C 360.525 100.562,357.527 97.987,354.365 97.434 C 351.509 96.935,331.824 97.202,329.604 97.770 C 326.984 98.440,323.833 102.271,323.833 104.787 C 323.833 104.952,323.310 104.526,322.524 103.722 C 319.241 100.363,316.069 99.196,308.083 98.411 C 306.167 98.223,294.695 98.179,293.167 98.355 C 290.273 98.687,288.329 99.698,286.742 101.696 C 286.520 101.976,285.932 103.075,285.599 103.833 C 285.368 104.359,285.111 105.290,284.657 107.250 C 284.572 107.617,284.428 108.179,284.337 108.500 C 284.247 108.821,284.053 109.608,283.908 110.250 C 283.532 111.908,283.476 112.008,283.308 111.333 C 282.919 109.768,282.225 106.334,281.842 104.083 C 280.880 98.419,277.739 95.829,271.330 95.416 C 265.408 95.033,261.119 98.930,255.160 110.105 L 254.438 111.459 253.913 110.159 C 251.915 105.203,247.735 102.110,241.500 100.975 C 238.766 100.477,234.819 100.307,227.500 100.371 L 220.750 100.431 219.512 100.882 C 218.832 101.130,218.097 101.450,217.880 101.592 C 217.511 101.834,217.453 101.824,216.987 101.431 C 214.699 99.506,207.340 98.652,203.970 99.921 C 196.878 102.592,192.840 106.339,189.175 113.651 C 187.694 116.605,187.706 116.605,186.743 113.583 C 184.626 106.943,181.298 104.120,174.833 103.484 C 166.744 102.688,161.637 105.623,160.160 111.917 C 159.966 112.742,159.753 113.642,159.686 113.917 C 159.581 114.347,159.527 114.219,159.293 113.000 C 159.144 112.221,158.789 110.496,158.504 109.167 C 158.219 107.837,157.845 105.962,157.673 105.000 C 156.977 101.108,156.504 99.993,154.839 98.326 C 151.780 95.262,145.149 94.294,141.524 96.382 C 138.218 98.286,134.813 102.640,130.908 109.958 C 130.126 111.424,130.179 111.420,129.667 110.051 C 128.716 107.510,126.330 104.682,123.931 103.250 C 122.101 102.158,121.949 102.078,121.167 101.794 C 117.564 100.488,114.614 100.197,104.500 100.151 C 96.256 100.114,96.249 100.114,93.896 101.257 C 92.512 101.929,91.092 103.335,90.513 104.604 C 90.309 105.051,90.071 105.550,89.984 105.712 C 89.748 106.152,88.550 110.771,88.180 112.667 L 88.066 113.250 87.958 112.583 C 87.899 112.217,87.581 110.642,87.252 109.083 C 86.923 107.525,86.510 105.425,86.336 104.417 C 85.958 102.233,85.398 100.379,85.003 100.000 C 84.955 99.954,84.806 99.704,84.672 99.444 C 84.078 98.293,80.960 96.000,79.989 96.000 C 79.848 96.000,79.662 95.932,79.575 95.848 C 78.960 95.257,73.692 94.956,72.095 95.420 C 68.820 96.372,65.851 99.306,62.144 105.250 C 61.744 105.892,61.321 106.567,61.205 106.750 C 61.088 106.933,60.880 107.308,60.741 107.583 C 60.602 107.858,60.318 108.383,60.110 108.750 C 59.435 109.937,58.236 112.192,56.875 114.833 C 54.926 118.618,53.764 120.835,53.358 121.542 C 53.161 121.885,52.861 122.410,52.691 122.708 C 52.380 123.254,49.821 127.345,49.016 128.583 C 48.079 130.026,48.223 130.074,46.614 127.793 C 45.821 126.669,44.984 125.532,44.753 125.266 C 44.158 124.580,44.188 124.545,47.187 122.417 C 51.396 119.429,54.917 115.879,56.165 113.363 C 58.564 108.529,56.033 102.249,50.750 99.927 C 50.200 99.685,49.626 99.419,49.474 99.335 C 46.889 97.911,41.268 98.697,38.648 100.849 L 37.880 101.480 37.580 100.490 C 37.415 99.946,37.236 99.500,37.181 99.500 C 37.126 99.500,36.977 99.263,36.849 98.974 C 36.184 97.472,33.684 95.897,31.237 95.437 C 29.911 95.188,24.813 94.949,24.000 95.098 M28.716 99.934 C 33.377 100.225,34.170 101.986,32.614 108.583 C 31.415 113.666,31.548 113.763,35.112 110.406 C 40.138 105.672,42.079 104.060,43.213 103.677 C 47.249 102.314,52.333 105.426,52.333 109.259 C 52.333 111.995,50.314 114.194,42.417 120.058 C 38.283 123.128,38.190 123.248,38.810 124.695 C 39.100 125.372,40.605 127.697,41.397 128.693 C 48.495 137.615,48.080 142.278,39.989 144.489 C 36.077 145.558,34.797 144.691,32.135 139.167 C 27.820 130.215,27.904 130.235,26.672 137.833 C 25.243 146.637,23.789 148.701,18.394 149.585 C 12.322 150.581,9.517 148.243,11.067 143.480 C 11.445 142.316,12.284 139.178,12.755 137.167 C 13.259 135.007,13.721 133.020,13.916 132.167 C 14.823 128.205,15.410 125.599,15.588 124.750 C 15.703 124.200,16.074 122.475,16.412 120.917 C 16.750 119.358,17.290 116.846,17.613 115.333 C 18.567 110.857,18.614 110.636,18.892 109.384 C 19.038 108.725,19.233 107.399,19.324 106.437 C 19.768 101.752,22.203 99.422,26.299 99.764 C 26.785 99.805,27.872 99.881,28.716 99.934 M76.529 100.001 C 79.789 100.472,81.013 101.611,81.565 104.686 C 81.866 106.360,82.412 109.171,82.727 110.667 C 83.135 112.598,84.305 118.389,84.496 119.417 C 85.472 124.676,85.886 127.477,86.245 131.250 C 86.640 135.403,86.443 138.668,85.708 140.144 C 84.971 141.624,81.807 142.588,77.730 142.575 C 73.911 142.563,73.731 142.405,73.553 138.900 C 73.360 135.091,73.189 134.956,68.667 135.057 C 64.104 135.158,63.552 135.405,62.301 137.903 C 61.930 138.644,60.970 140.262,60.168 141.500 C 59.366 142.737,58.470 144.237,58.177 144.833 C 56.900 147.432,55.270 148.037,50.501 147.678 C 46.776 147.398,45.333 146.747,45.333 145.346 C 45.333 143.797,48.361 138.260,53.798 129.867 C 56.461 125.755,57.929 123.147,61.834 115.583 C 68.704 102.277,71.532 99.278,76.529 100.001 M149.250 100.338 C 151.682 101.065,152.405 102.017,152.981 105.250 C 153.177 106.350,153.489 107.962,153.675 108.833 C 158.378 130.929,158.965 139.584,155.875 141.283 C 154.002 142.313,152.627 142.581,149.212 142.582 L 146.173 142.583 145.653 142.063 C 145.151 141.561,145.127 141.473,144.988 139.563 C 144.650 134.954,144.588 134.905,139.417 135.134 C 135.202 135.321,134.795 135.526,133.580 138.083 C 133.319 138.633,132.478 140.042,131.711 141.214 C 130.944 142.385,130.027 143.923,129.672 144.630 C 128.210 147.547,126.558 148.136,121.112 147.682 C 117.747 147.401,116.534 146.694,116.725 145.126 C 116.925 143.491,119.970 137.965,125.107 129.917 C 127.896 125.548,128.911 123.846,130.129 121.500 C 130.533 120.721,131.505 118.846,132.289 117.333 C 137.156 107.941,139.022 104.956,141.803 102.110 C 143.926 99.938,146.144 99.410,149.250 100.338 M272.363 100.245 C 276.080 100.894,276.527 101.486,277.646 107.250 C 278.020 109.175,278.592 112.025,278.917 113.583 C 279.779 117.720,280.583 122.033,281.168 125.667 C 282.229 132.249,282.268 138.531,281.262 140.478 C 280.575 141.806,277.379 142.736,273.470 142.744 C 269.541 142.752,269.337 142.570,269.159 138.904 C 268.981 135.238,268.783 135.089,264.240 135.207 C 259.817 135.321,259.112 135.616,258.080 137.791 C 257.745 138.497,256.811 140.090,256.006 141.329 C 255.200 142.569,254.297 144.071,253.999 144.667 C 252.503 147.657,251.095 148.215,246.000 147.838 C 242.031 147.545,241.083 147.083,241.083 145.441 C 241.083 143.853,243.732 138.888,248.697 131.167 C 251.731 126.448,252.883 124.529,254.224 121.959 C 254.811 120.836,256.210 118.154,257.333 116.001 C 264.636 102.004,267.176 99.341,272.363 100.245 M353.231 102.097 C 355.952 102.387,356.419 103.551,355.565 107.917 C 354.405 113.846,353.998 114.070,344.569 113.971 C 338.813 113.911,338.967 113.883,338.662 115.019 C 338.239 116.590,339.130 116.868,344.738 116.915 C 347.492 116.938,349.081 117.017,349.399 117.147 L 349.882 117.344 349.780 118.630 C 349.715 119.455,349.433 120.665,348.995 122.000 C 348.619 123.146,348.209 124.521,348.084 125.056 C 347.437 127.817,346.215 128.358,340.548 128.393 C 336.063 128.420,336.258 128.349,336.016 130.056 C 335.715 132.180,336.411 132.282,342.417 130.992 C 346.950 130.018,349.932 130.257,350.275 131.622 C 350.528 132.631,350.203 138.710,349.840 139.750 C 349.243 141.461,348.752 141.717,343.500 143.057 C 333.459 145.621,325.788 146.020,321.768 144.189 L 320.619 143.666 320.734 141.625 C 320.930 138.109,321.504 134.633,322.997 127.917 C 323.701 124.750,324.490 121.039,324.574 120.500 C 325.475 114.736,325.706 113.773,327.270 109.250 C 327.872 107.508,328.459 105.746,328.573 105.333 C 329.018 103.732,330.124 102.450,331.243 102.240 C 333.079 101.896,350.292 101.784,353.231 102.097 M297.917 102.996 C 298.485 103.072,299.852 103.054,301.083 102.955 C 304.387 102.688,311.449 103.350,314.417 104.204 C 321.495 106.243,323.796 113.976,319.838 122.426 C 317.914 126.535,313.890 130.731,310.925 131.720 C 310.700 131.794,311.391 132.918,313.570 136.024 C 318.764 143.427,318.303 146.943,311.872 148.991 C 308.225 150.152,307.227 149.614,305.084 145.334 C 303.756 142.683,300.669 137.230,299.633 135.708 C 299.201 135.074,297.167 134.551,297.167 135.074 C 297.167 135.653,296.240 141.212,295.901 142.667 C 294.191 150.011,290.759 152.686,284.853 151.279 C 281.546 150.491,281.046 149.336,282.010 144.702 C 283.298 138.509,283.556 137.218,284.102 134.250 C 284.422 132.508,284.796 130.483,284.933 129.750 C 285.070 129.017,285.292 127.779,285.428 127.000 C 285.563 126.221,285.744 125.246,285.830 124.833 C 285.917 124.421,286.145 123.221,286.339 122.167 C 286.776 119.779,287.768 114.777,288.090 113.333 C 289.836 105.502,290.220 104.439,291.600 103.633 C 292.748 102.963,295.560 102.679,297.917 102.996 M211.770 104.258 C 215.513 104.909,215.597 105.543,213.208 115.083 C 212.657 117.283,212.088 119.646,211.943 120.333 C 211.554 122.183,210.712 126.591,210.510 127.833 C 210.414 128.429,210.257 129.292,210.163 129.750 C 210.068 130.208,209.727 131.933,209.405 133.583 C 208.124 140.137,206.559 145.808,205.080 149.250 C 203.807 152.214,203.523 152.675,202.768 153.009 C 200.252 154.122,195.354 153.645,193.583 152.114 L 192.949 151.566 192.962 148.908 C 192.980 145.176,193.318 143.152,195.106 136.083 C 196.952 128.788,197.184 127.560,196.748 127.393 C 196.262 127.207,195.338 128.413,193.921 131.083 C 189.502 139.410,188.047 140.995,184.549 141.290 C 179.635 141.706,178.144 139.586,177.078 130.667 C 176.307 124.213,175.331 123.422,174.580 128.644 C 174.309 130.531,174.246 130.858,173.445 134.501 C 172.027 140.950,170.160 146.412,168.445 149.123 C 167.627 150.416,166.023 150.797,162.671 150.493 C 158.817 150.144,157.332 149.194,157.336 147.083 C 157.339 146.096,157.804 143.450,158.847 138.500 C 159.431 135.728,160.048 133.039,161.085 128.750 C 162.364 123.456,163.565 118.247,164.157 115.417 C 164.733 112.661,164.835 112.286,165.242 111.392 C 166.533 108.558,170.368 107.374,175.414 108.254 C 179.267 108.926,180.969 110.607,182.333 115.083 C 183.541 119.051,184.833 120.437,187.502 120.628 C 190.070 120.812,191.295 119.785,193.333 115.740 C 195.653 111.136,197.457 108.932,200.620 106.836 C 204.516 104.255,207.624 103.536,211.770 104.258 M381.000 104.326 C 387.828 104.801,389.045 105.637,389.265 110.000 C 389.582 116.269,387.174 118.422,381.333 117.092 C 378.329 116.408,377.993 116.305,374.750 115.076 C 373.020 114.420,371.692 114.423,370.990 115.083 C 369.065 116.895,370.077 118.549,375.326 122.167 C 386.290 129.723,387.887 134.196,382.474 142.192 C 379.890 146.010,376.638 148.696,372.651 150.307 C 368.454 152.003,366.191 152.151,357.180 151.315 C 352.022 150.836,349.971 148.858,350.209 144.593 C 350.483 139.684,353.315 137.927,359.750 138.673 C 364.841 139.263,368.203 138.708,369.173 137.118 C 370.618 134.747,366.673 129.627,360.296 125.598 C 356.878 123.439,356.412 122.675,356.426 119.250 C 356.452 112.391,361.744 107.000,370.586 104.823 C 373.802 104.032,375.561 103.948,381.000 104.326 M111.921 104.992 C 122.737 105.564,127.214 110.041,126.011 119.083 C 124.763 128.469,114.034 136.831,103.239 136.833 L 101.561 136.833 101.367 138.208 C 100.225 146.324,99.244 149.317,97.012 151.500 C 95.251 153.222,93.398 153.740,90.411 153.342 C 85.793 152.727,85.324 151.585,86.805 144.560 C 87.267 142.373,87.840 139.533,88.080 138.250 C 88.320 136.967,88.585 135.579,88.668 135.167 C 88.813 134.454,89.230 132.177,89.752 129.250 C 90.980 122.364,92.788 113.501,93.646 110.167 C 94.658 106.230,95.164 105.515,97.289 105.015 C 98.123 104.818,108.339 104.802,111.921 104.992 M234.167 105.076 C 245.543 105.296,249.781 108.122,250.422 115.917 C 251.279 126.341,240.597 136.352,227.980 136.949 L 225.876 137.048 225.509 139.399 C 224.136 148.188,222.745 151.341,219.536 152.941 C 217.420 153.997,212.349 153.495,211.054 152.101 C 209.918 150.879,209.923 150.064,211.104 144.667 C 211.581 142.489,212.546 137.507,213.333 133.167 C 213.508 132.204,213.767 130.798,213.909 130.042 C 214.051 129.285,214.283 128.048,214.425 127.292 C 214.567 126.535,214.823 125.129,214.994 124.167 C 215.393 121.917,216.837 114.904,217.498 112.000 C 219.238 104.362,218.257 104.770,234.167 105.076 M300.833 114.663 C 300.833 114.845,300.723 115.576,300.588 116.288 C 299.558 121.727,298.965 124.793,298.894 125.042 C 298.655 125.881,302.325 124.883,303.929 123.672 C 306.805 121.500,307.711 117.887,305.866 115.943 C 304.727 114.743,300.833 113.753,300.833 114.663 M105.259 116.518 C 105.214 116.646,105.028 117.612,104.846 118.667 C 104.420 121.136,104.081 122.961,103.613 125.292 L 103.237 127.167 103.934 127.167 C 108.873 127.167,113.073 121.062,110.303 117.908 C 109.302 116.768,105.538 115.730,105.259 116.518 M229.188 118.523 C 228.835 120.603,227.774 126.085,227.550 126.985 C 227.343 127.820,230.607 127.050,232.333 125.856 C 237.239 122.466,236.303 116.961,230.728 116.411 L 229.565 116.297 229.188 118.523 M70.118 119.562 C 69.442 120.291,66.905 125.979,67.111 126.306 C 67.417 126.793,71.836 126.925,72.708 126.473 C 73.145 126.247,73.074 125.633,72.317 123.070 C 71.275 119.538,70.817 118.808,70.118 119.562 M141.356 119.759 C 141.005 120.206,140.965 120.283,139.344 123.731 C 137.866 126.873,137.823 126.807,141.349 126.773 C 144.822 126.740,144.773 126.835,143.495 122.666 C 142.504 119.433,142.073 118.847,141.356 119.759 M265.511 119.984 C 265.322 120.250,265.167 120.510,265.167 120.562 C 265.167 120.613,264.601 121.837,263.909 123.282 C 262.235 126.778,262.224 126.718,264.583 126.863 C 268.800 127.121,268.973 126.986,268.157 124.071 C 266.914 119.628,266.367 118.783,265.511 119.984 M354.645 127.333 C 355.405 128.057,356.655 128.967,357.750 129.596 C 358.208 129.859,358.658 130.135,358.750 130.210 C 358.842 130.284,359.404 130.682,360.000 131.093 C 360.596 131.505,361.602 132.346,362.235 132.962 L 363.387 134.083 362.336 134.134 C 361.758 134.161,360.917 134.105,360.467 134.009 C 360.018 133.912,358.623 133.833,357.367 133.833 L 355.083 133.833 355.081 132.375 C 355.079 130.303,354.529 128.959,353.155 127.667 L 352.535 127.083 352.709 126.144 L 352.882 125.205 353.458 125.978 C 353.774 126.402,354.309 127.013,354.645 127.333 M238.071 139.873 C 238.006 140.078,237.609 140.959,237.189 141.831 L 236.426 143.417 236.421 145.417 C 236.413 149.057,238.375 151.294,242.366 152.194 C 244.255 152.619,251.309 152.756,251.691 152.375 C 251.806 152.260,252.046 152.167,252.224 152.167 C 253.840 152.167,256.698 149.746,257.985 147.287 C 258.910 145.520,258.982 145.398,260.193 143.581 C 260.804 142.666,261.518 141.504,261.780 141.000 L 262.256 140.083 263.355 140.035 L 264.454 139.986 264.634 141.386 C 265.004 144.249,266.400 146.039,269.083 147.090 C 269.816 147.377,270.336 147.417,273.375 147.417 L 276.833 147.417 276.833 148.224 C 276.833 149.724,277.637 151.965,278.509 152.895 C 279.193 153.624,279.233 153.604,276.869 153.717 C 274.706 153.821,273.355 154.080,272.373 154.582 C 271.841 154.854,271.813 154.849,271.040 154.374 C 266.513 151.591,258.220 153.080,254.930 157.267 L 254.444 157.886 254.078 157.068 C 253.638 156.087,252.861 155.091,252.123 154.564 C 251.826 154.352,251.494 154.102,251.386 154.009 C 250.572 153.312,247.098 152.736,245.365 153.010 C 243.636 153.283,241.988 154.372,240.479 156.235 C 239.427 157.536,239.535 157.386,238.642 158.789 L 237.874 159.995 237.448 159.351 C 235.813 156.881,232.441 155.585,227.125 155.383 C 225.681 155.328,224.500 155.264,224.500 155.239 C 224.500 155.215,224.770 154.918,225.099 154.578 C 226.030 153.620,227.833 150.650,227.833 150.076 C 227.833 150.016,227.939 149.731,228.069 149.442 C 228.566 148.333,229.052 146.495,229.509 144.000 C 229.601 143.496,229.755 142.735,229.851 142.309 L 230.025 141.535 231.387 141.340 C 232.137 141.233,233.350 140.992,234.083 140.804 C 235.529 140.434,235.457 140.457,236.917 139.908 C 238.192 139.429,238.212 139.428,238.071 139.873 M176.833 143.750 C 178.054 145.009,178.726 145.303,181.417 145.757 C 183.501 146.109,186.970 145.968,187.583 145.507 C 188.159 145.074,188.474 145.197,188.361 145.811 C 188.201 146.681,188.231 151.222,188.405 152.500 C 188.546 153.534,189.048 154.517,189.624 154.883 C 190.059 155.160,189.806 155.276,189.042 155.150 C 188.606 155.079,187.912 155.013,187.500 155.005 C 187.088 154.996,186.608 154.882,186.434 154.750 C 185.317 153.905,184.250 153.779,178.083 153.765 C 171.137 153.749,170.536 153.855,168.886 155.386 C 168.403 155.833,168.331 155.854,168.093 155.617 C 167.949 155.473,167.664 155.302,167.460 155.237 C 167.155 155.140,167.246 155.080,167.984 154.891 C 169.657 154.463,171.544 153.231,172.157 152.167 C 173.621 149.624,174.633 147.405,175.519 144.792 C 176.149 142.933,176.088 142.981,176.833 143.750 M345.910 148.525 C 346.251 149.740,346.980 151.144,347.779 152.125 C 348.096 152.515,348.294 152.836,348.219 152.838 C 346.324 152.910,344.260 153.532,343.024 154.403 L 342.298 154.916 339.524 154.858 C 335.902 154.784,333.897 155.438,332.440 157.169 C 332.095 157.580,331.999 157.615,331.729 157.434 C 329.855 156.177,324.729 155.757,321.583 156.603 C 321.400 156.653,321.129 156.727,320.980 156.767 C 320.788 156.821,320.575 156.573,320.235 155.902 C 319.455 154.359,317.775 153.235,315.942 153.026 L 314.917 152.910 316.482 152.116 C 317.964 151.363,319.372 150.182,320.157 149.032 C 320.307 148.813,320.465 148.735,320.574 148.825 C 321.753 149.802,329.495 150.281,334.250 149.672 C 336.023 149.444,339.452 148.877,340.667 148.610 C 341.262 148.479,342.350 148.243,343.083 148.085 C 343.817 147.926,344.529 147.732,344.667 147.653 C 345.335 147.270,345.613 147.465,345.910 148.525 M100.801 157.984 C 101.510 158.366,101.882 159.002,102.097 160.202 C 102.216 160.870,102.544 162.504,102.825 163.833 C 104.116 169.950,104.645 174.918,104.184 176.611 C 103.889 177.693,101.618 178.518,99.674 178.251 C 98.423 178.079,98.167 177.728,98.167 176.184 C 98.167 174.639,97.876 174.437,95.818 174.557 C 93.840 174.672,93.413 174.858,92.914 175.825 C 92.699 176.242,92.162 177.158,91.720 177.861 C 91.278 178.563,90.792 179.364,90.640 179.641 C 89.926 180.934,85.472 181.193,84.822 179.978 C 84.562 179.493,85.830 176.491,86.996 174.834 C 88.177 173.155,90.507 169.189,92.040 166.250 C 95.126 160.330,96.682 158.118,98.033 157.728 C 98.611 157.561,100.307 157.717,100.801 157.984 M113.972 157.757 C 115.823 158.307,116.735 159.950,117.252 163.667 C 117.624 166.336,118.001 166.117,118.750 162.799 C 119.481 159.561,119.980 159.110,122.920 159.026 C 125.738 158.944,126.158 159.398,125.538 161.853 C 124.915 164.316,123.352 172.511,123.157 174.333 C 122.742 178.215,121.844 179.134,118.750 178.847 C 116.052 178.596,115.594 177.968,114.423 172.920 C 114.126 171.639,113.519 170.000,113.342 170.000 C 113.052 170.000,112.610 171.914,112.169 175.083 C 111.401 180.596,111.011 181.257,108.408 181.454 C 104.831 181.725,104.569 181.178,105.657 175.715 C 106.018 173.901,106.394 171.592,106.491 170.583 C 107.222 163.035,108.031 159.623,109.393 158.353 C 110.210 157.591,112.437 157.301,113.972 157.757 M248.796 158.042 C 249.719 158.495,249.781 158.715,251.580 168.000 C 252.243 171.418,252.484 174.949,252.158 176.466 C 251.950 177.436,251.331 177.827,249.468 178.165 C 247.005 178.612,246.167 178.157,246.167 176.372 C 246.167 174.711,245.786 174.424,243.744 174.546 C 241.842 174.659,241.370 174.870,240.856 175.834 C 240.637 176.246,240.108 177.146,239.681 177.833 C 239.254 178.521,238.783 179.308,238.634 179.583 C 237.771 181.172,232.882 181.197,232.697 179.614 C 232.630 179.040,234.452 175.502,236.189 172.833 C 237.954 170.123,238.415 169.318,240.234 165.783 C 244.242 157.997,245.812 156.577,248.796 158.042 M267.556 158.005 C 272.216 159.450,271.693 165.972,266.917 165.992 C 266.048 165.996,265.961 165.926,265.426 164.789 C 264.009 161.781,261.321 163.475,259.855 168.298 C 258.306 173.400,258.851 175.931,261.247 174.759 C 263.093 173.856,263.448 172.796,261.984 172.561 C 260.979 172.401,260.795 172.135,260.917 171.020 C 261.194 168.485,261.618 168.089,264.250 167.900 C 270.352 167.462,270.920 167.838,269.811 171.583 C 267.766 178.493,261.017 182.680,255.654 180.366 C 253.611 179.484,252.706 175.775,253.484 171.466 C 255.278 161.514,261.055 155.989,267.556 158.005 M315.536 157.748 C 315.784 157.813,316.029 157.994,316.078 158.151 C 316.175 158.455,316.160 158.541,315.331 162.500 C 315.034 163.921,314.660 165.721,314.501 166.500 C 314.342 167.279,313.943 169.117,313.614 170.583 C 313.285 172.050,312.908 173.984,312.775 174.881 C 312.303 178.066,311.619 178.842,309.300 178.821 C 306.176 178.792,305.936 178.475,306.496 175.107 C 307.024 171.929,306.989 171.832,305.295 171.836 C 303.568 171.840,303.658 171.723,302.979 174.833 C 301.805 180.206,300.960 181.500,298.629 181.500 C 295.510 181.500,295.140 180.909,295.978 177.279 C 296.152 176.529,296.422 175.317,296.581 174.583 C 296.739 173.850,297.013 172.612,297.191 171.833 C 297.368 171.054,297.623 169.929,297.756 169.333 C 297.889 168.737,298.151 167.575,298.339 166.750 C 298.527 165.925,298.794 164.725,298.933 164.083 C 299.772 160.211,300.236 159.786,303.397 159.990 C 305.867 160.150,306.136 160.679,305.317 163.765 C 304.623 166.379,304.605 166.510,304.906 166.810 C 305.249 167.151,307.435 167.143,307.760 166.800 C 307.969 166.579,308.789 163.561,309.335 161.000 C 310.005 157.857,310.372 157.526,313.112 157.586 C 314.196 157.610,315.287 157.683,315.536 157.748 M350.792 157.858 C 351.969 158.223,351.836 159.200,349.428 167.917 C 349.099 169.108,348.749 170.608,348.651 171.250 C 347.400 179.445,342.686 183.727,336.623 182.177 C 331.562 180.883,331.177 177.802,334.462 164.888 C 335.778 159.713,335.828 159.651,338.755 159.533 C 342.558 159.379,342.655 159.945,340.291 168.500 C 338.918 173.472,338.644 175.585,339.259 176.463 C 339.906 177.386,340.782 176.759,341.302 175.000 C 342.097 172.310,342.508 170.560,342.906 168.167 C 343.771 162.970,344.529 159.669,345.016 158.980 C 345.920 157.703,348.609 157.180,350.792 157.858 M196.417 158.155 L 197.083 158.263 196.167 158.615 C 195.185 158.991,195.075 158.961,194.626 158.197 L 194.336 157.703 195.043 157.875 C 195.432 157.969,196.050 158.095,196.417 158.155 M22.517 158.894 C 27.376 159.140,27.375 159.139,26.266 162.083 C 25.453 164.238,25.467 164.231,21.947 164.333 C 18.911 164.422,18.612 164.495,18.443 165.189 C 18.287 165.832,18.528 165.951,21.095 166.502 C 23.933 167.112,24.071 167.281,23.265 169.150 C 22.320 171.339,21.551 171.718,19.004 171.251 C 16.754 170.838,16.844 170.712,15.846 175.676 C 14.812 180.823,14.271 181.712,12.174 181.719 C 10.244 181.724,9.000 181.252,9.000 180.513 C 9.000 178.461,10.077 172.830,11.649 166.667 C 13.858 158.005,13.609 158.387,16.917 158.590 C 17.925 158.652,20.445 158.789,22.517 158.894 M164.098 158.942 C 167.709 160.147,168.518 164.357,165.713 167.355 L 164.958 168.163 165.545 168.813 C 169.229 172.891,166.501 178.479,159.917 180.342 C 156.889 181.198,153.074 180.683,151.925 179.263 L 151.417 178.635 151.422 176.359 C 151.427 174.059,151.523 173.446,152.482 169.583 C 152.774 168.408,153.249 166.431,154.102 162.845 C 154.596 160.767,155.317 159.704,156.712 158.994 L 157.750 158.466 160.515 158.567 C 162.393 158.636,163.542 158.756,164.098 158.942 M183.833 158.792 L 184.417 159.084 184.371 160.167 C 184.324 161.306,183.822 163.214,183.439 163.708 C 183.088 164.162,181.637 164.354,178.968 164.300 C 176.466 164.249,176.244 164.297,176.139 164.907 C 176.047 165.445,176.744 165.661,178.583 165.666 C 181.879 165.675,181.885 165.683,180.981 168.583 C 180.210 171.058,179.626 171.413,176.660 171.210 C 175.193 171.109,174.833 171.317,174.833 172.262 L 174.833 172.833 175.715 172.833 C 176.200 172.833,177.006 172.729,177.507 172.601 C 179.748 172.027,181.393 172.075,181.604 172.720 C 181.773 173.237,181.683 176.146,181.478 176.795 C 180.791 178.963,167.500 180.428,167.500 178.335 C 167.500 177.428,167.894 174.559,168.255 172.833 C 168.476 171.779,168.836 170.054,169.056 169.000 C 169.276 167.946,169.508 166.671,169.571 166.167 C 169.953 163.107,171.663 158.791,172.562 158.615 C 173.827 158.367,183.280 158.515,183.833 158.792 M217.669 158.917 C 218.121 159.324,218.052 160.756,217.494 162.564 C 216.981 164.225,216.923 164.247,213.119 164.262 C 209.814 164.275,209.676 164.307,209.669 165.046 C 209.665 165.500,210.357 165.667,212.240 165.667 C 215.323 165.667,215.372 165.722,214.598 168.372 C 213.785 171.160,213.681 171.239,210.894 171.207 C 208.787 171.182,208.542 171.280,208.391 172.209 L 208.290 172.833 209.154 172.833 C 209.629 172.833,210.557 172.708,211.217 172.556 C 214.740 171.740,215.413 172.092,215.257 174.667 C 215.096 177.335,215.060 177.402,213.532 177.894 C 208.446 179.530,203.029 179.879,201.192 178.689 C 200.867 178.478,201.309 175.129,202.229 170.833 C 202.632 168.954,203.014 167.004,203.078 166.500 C 203.505 163.149,205.092 158.963,206.043 158.683 C 207.205 158.340,217.253 158.542,217.669 158.917 M286.526 158.952 C 287.218 159.644,286.416 163.493,285.469 164.028 C 285.192 164.185,284.203 164.251,281.945 164.261 C 278.648 164.275,278.509 164.307,278.503 165.046 C 278.499 165.500,279.190 165.667,281.073 165.667 C 284.123 165.667,284.234 165.786,283.483 168.250 C 282.606 171.127,282.464 171.239,279.727 171.207 C 277.618 171.182,277.321 171.300,277.278 172.174 C 277.242 172.903,278.014 173.015,279.985 172.568 C 281.611 172.198,283.508 172.163,283.909 172.495 C 284.235 172.764,284.170 175.817,283.814 176.949 C 283.292 178.610,273.355 180.085,270.558 178.917 L 269.950 178.663 270.046 176.873 C 270.098 175.889,270.257 174.558,270.398 173.917 C 271.341 169.629,271.819 167.296,271.916 166.500 C 272.146 164.620,273.708 159.599,274.249 159.001 C 274.838 158.350,285.881 158.306,286.526 158.952 M382.734 159.000 C 383.161 159.436,383.136 160.010,382.573 162.631 C 382.257 164.105,381.344 164.394,377.286 164.302 C 374.862 164.247,374.676 164.300,374.669 165.046 C 374.665 165.503,375.355 165.665,377.386 165.683 C 380.374 165.710,380.429 165.777,379.658 168.408 C 378.886 171.039,378.620 171.239,375.934 171.204 C 373.738 171.176,373.500 171.273,373.500 172.197 L 373.500 172.883 374.803 172.782 C 375.519 172.727,376.302 172.607,376.543 172.515 C 377.454 172.169,379.456 172.099,379.912 172.398 C 380.836 173.004,380.392 177.248,379.363 177.639 C 374.994 179.297,369.062 179.886,366.683 178.898 L 366.117 178.663 366.220 177.040 C 366.303 175.724,367.274 170.366,367.578 169.544 C 367.620 169.430,367.844 168.215,368.076 166.843 C 368.451 164.627,369.239 161.825,370.077 159.731 C 370.326 159.110,370.613 158.852,371.333 158.605 C 371.471 158.558,374.000 158.534,376.955 158.551 L 382.326 158.583 382.734 159.000 M70.667 159.481 C 74.872 160.209,76.475 161.953,76.279 165.583 C 75.922 172.166,70.614 177.748,63.351 179.176 C 59.858 179.864,59.190 179.144,59.844 175.392 C 60.033 174.305,60.337 172.517,60.518 171.417 C 60.901 169.091,61.217 167.196,61.579 165.057 C 62.145 161.710,63.411 159.944,65.554 159.511 C 66.028 159.415,66.567 159.307,66.750 159.271 C 67.532 159.117,69.034 159.197,70.667 159.481 M135.500 159.481 C 139.701 160.209,141.084 161.636,141.083 165.240 C 141.080 172.217,134.530 178.785,127.083 179.278 C 124.034 179.480,123.983 179.275,125.264 172.000 C 125.509 170.611,125.948 167.980,126.405 165.167 C 127.234 160.058,129.751 158.484,135.500 159.481 M363.618 159.660 C 366.654 159.911,367.167 160.339,367.167 162.621 C 367.167 166.198,365.567 166.784,360.702 164.991 C 359.489 164.545,358.593 164.561,358.259 165.037 C 357.677 165.868,358.226 166.615,360.651 168.293 C 365.737 171.812,366.535 174.227,363.880 178.065 C 361.612 181.345,359.260 182.429,354.500 182.390 C 349.655 182.350,348.655 181.866,348.534 179.504 C 348.398 176.835,349.241 176.250,353.222 176.250 C 354.887 176.250,356.438 176.185,356.667 176.105 C 358.861 175.343,357.418 172.613,353.415 169.952 C 351.223 168.495,350.820 166.772,352.077 164.230 C 353.776 160.792,357.842 159.182,363.618 159.660 M189.766 160.151 C 191.212 160.807,191.944 162.905,192.245 167.250 C 192.302 168.075,192.427 169.149,192.522 169.638 C 192.795 171.034,192.845 170.963,195.495 165.461 C 196.426 163.527,196.517 163.443,198.250 162.921 C 199.405 162.573,199.803 162.601,200.807 163.101 C 203.534 164.461,202.996 166.399,197.662 174.417 C 196.686 175.883,195.459 177.814,194.935 178.706 C 193.607 180.970,193.125 181.250,190.555 181.250 C 187.624 181.250,187.423 180.841,186.326 172.667 C 186.135 171.246,185.912 169.821,185.831 169.500 C 185.661 168.833,185.041 163.115,184.967 161.520 C 184.917 160.458,184.917 160.456,185.497 160.145 C 186.312 159.708,188.798 159.711,189.766 160.151 M228.318 160.188 C 232.442 160.562,234.099 161.715,234.667 164.602 C 235.289 167.762,232.515 172.867,229.629 173.877 C 229.490 173.926,229.838 174.566,230.633 175.725 C 233.082 179.297,233.125 180.668,230.829 181.910 C 228.796 183.009,227.833 182.662,226.718 180.426 C 224.439 175.856,223.192 174.447,222.910 176.125 C 221.925 182.000,221.008 183.500,218.401 183.500 C 215.416 183.500,215.141 182.882,216.072 178.258 C 216.594 175.665,216.845 174.336,217.599 170.167 C 219.130 161.710,219.537 160.466,220.868 160.173 C 221.716 159.987,226.201 159.996,228.318 160.188 M37.426 160.672 C 41.178 161.954,42.705 166.220,41.425 171.848 C 39.606 179.842,27.834 183.856,24.714 177.544 L 24.083 176.268 24.083 173.592 C 24.083 168.666,26.319 164.401,29.862 162.568 C 30.143 162.423,30.746 162.036,31.202 161.709 C 33.057 160.376,35.412 159.984,37.426 160.672 M55.020 160.571 C 58.811 161.721,60.153 164.662,59.522 170.440 C 58.593 178.952,46.118 184.480,42.766 177.864 C 40.290 172.979,42.892 165.341,48.060 162.321 C 48.598 162.007,49.348 161.565,49.727 161.339 C 51.330 160.383,53.408 160.081,55.020 160.571 M328.167 161.141 C 331.517 162.032,332.626 164.412,332.187 169.772 C 331.761 174.982,328.437 178.862,323.141 180.329 C 317.722 181.831,314.430 179.092,314.435 173.083 C 314.442 165.211,321.241 159.298,328.167 161.141 M68.204 163.779 C 67.679 163.989,66.945 166.225,66.515 168.917 C 66.413 169.558,66.212 170.819,66.068 171.719 C 65.694 174.055,66.042 174.458,67.328 173.172 C 69.608 170.892,70.610 165.746,69.091 164.108 C 68.677 163.660,68.584 163.626,68.204 163.779 M132.769 164.175 C 132.126 164.939,131.516 167.397,130.995 171.329 C 130.892 172.105,130.769 172.803,130.721 172.880 C 130.558 173.144,130.840 173.833,131.112 173.833 C 132.243 173.833,133.744 171.479,134.407 168.667 C 135.134 165.579,134.062 162.638,132.769 164.175 M159.266 164.208 C 158.949 164.699,158.727 166.914,158.978 167.070 C 159.601 167.455,161.167 165.811,161.167 164.772 C 161.167 163.819,159.782 163.409,159.266 164.208 M32.996 166.464 C 29.945 169.601,29.397 175.970,32.177 175.995 C 34.558 176.016,37.302 167.346,35.390 165.842 C 34.617 165.234,34.048 165.382,32.996 166.464 M51.306 165.997 C 48.061 168.672,47.135 176.000,50.043 176.000 C 52.502 176.000,55.284 167.098,53.243 165.761 C 52.634 165.361,51.981 165.441,51.306 165.997 M224.358 167.708 C 224.147 168.923,223.906 170.132,223.822 170.396 L 223.669 170.876 224.366 170.764 C 227.676 170.235,228.784 166.483,225.870 165.674 C 224.735 165.359,224.775 165.305,224.358 167.708 M323.834 165.875 C 321.989 167.137,320.200 172.929,321.103 174.717 C 322.127 176.745,323.603 176.377,325.237 173.688 C 327.880 169.336,326.884 163.789,323.834 165.875 M95.785 168.625 C 94.897 170.506,94.891 170.489,96.464 170.537 C 98.061 170.585,98.129 170.496,97.660 168.973 C 96.894 166.484,96.803 166.467,95.785 168.625 M243.743 168.590 C 242.820 170.566,242.802 170.446,244.030 170.534 C 246.048 170.680,246.106 170.588,245.405 168.360 C 244.845 166.581,244.670 166.605,243.743 168.590 M158.168 172.664 C 157.494 173.924,157.657 175.000,158.523 175.000 C 160.281 175.000,161.457 173.594,160.469 172.673 C 159.952 172.192,158.424 172.186,158.168 172.664 " stroke="none" fill="#fbfbfa" fill-rule="evenodd"></path><path id="path2" d="M199.333 7.266 C 199.333 7.321,199.442 7.564,199.574 7.808 C 199.812 8.245,200.053 8.786,200.587 10.083 C 202.796 15.456,201.868 18.751,195.934 26.587 C 193.746 29.476,193.430 29.953,192.761 31.382 C 190.277 36.688,191.743 43.215,196.448 47.792 C 197.829 49.135,198.329 49.467,198.080 48.875 C 197.900 48.447,197.509 46.918,197.239 45.583 C 197.109 44.942,196.929 44.103,196.838 43.720 C 196.576 42.605,196.459 39.506,196.639 38.417 C 197.093 35.664,197.573 34.678,199.745 32.022 C 204.728 25.932,206.468 22.027,206.286 17.340 C 206.153 13.886,205.283 11.932,202.863 9.648 C 201.105 7.989,199.333 6.793,199.333 7.266 M212.500 24.717 C 212.500 24.836,212.566 25.005,212.647 25.092 C 212.727 25.179,212.887 25.550,213.002 25.917 C 213.116 26.283,213.266 26.658,213.334 26.750 C 213.402 26.842,213.583 27.492,213.737 28.194 C 214.234 30.466,213.470 32.405,210.557 36.266 C 206.448 41.711,206.448 46.145,210.557 50.042 C 211.650 51.078,211.666 51.066,211.301 49.458 C 210.348 45.257,210.593 42.678,212.117 40.883 C 212.922 39.935,213.573 39.106,213.956 38.541 C 214.189 38.198,214.551 37.692,214.761 37.417 C 216.814 34.725,217.443 30.503,216.165 27.996 C 215.347 26.393,212.500 23.845,212.500 24.717 M180.667 26.135 C 180.667 26.293,181.234 27.704,181.484 28.168 C 182.329 29.737,182.230 32.280,181.257 34.008 C 181.027 34.416,180.764 34.921,180.672 35.129 C 180.580 35.338,180.429 35.601,180.336 35.713 C 179.160 37.134,176.811 40.438,176.517 41.083 C 174.885 44.670,175.699 48.515,178.728 51.539 C 179.938 52.746,179.942 52.741,179.434 50.728 C 178.360 46.475,178.715 44.389,180.991 41.581 C 185.854 35.583,186.420 30.823,182.678 27.384 C 181.846 26.619,180.667 25.887,180.667 26.135 M274.667 70.830 C 274.667 74.539,264.059 78.981,247.250 82.310 C 242.388 83.273,240.322 83.632,235.083 84.428 C 234.167 84.567,232.967 84.754,232.417 84.842 C 228.014 85.552,215.860 86.867,208.667 87.411 C 206.879 87.547,205.042 87.699,204.583 87.750 C 203.699 87.848,197.048 88.216,190.417 88.533 C 185.055 88.790,162.137 88.790,157.500 88.533 C 152.309 88.246,146.799 87.862,145.167 87.675 C 144.387 87.586,143.262 87.467,142.667 87.412 C 141.268 87.282,138.503 86.916,135.667 86.486 C 125.081 84.877,118.494 82.329,117.651 79.514 C 117.037 77.464,116.791 85.042,117.384 87.750 C 117.873 89.981,118.351 91.869,118.672 92.833 C 119.087 94.083,119.972 96.509,120.161 96.917 C 120.246 97.100,120.475 97.625,120.671 98.083 C 122.152 101.546,122.834 102.623,123.964 103.283 C 126.304 104.650,128.717 107.515,129.667 110.051 C 130.179 111.420,130.126 111.424,130.908 109.958 C 134.813 102.640,138.218 98.286,141.524 96.382 C 145.149 94.294,151.780 95.262,154.839 98.326 C 156.504 99.993,156.977 101.108,157.673 105.000 C 157.845 105.962,158.219 107.837,158.504 109.167 C 158.789 110.496,159.144 112.221,159.293 113.000 C 159.527 114.219,159.581 114.347,159.686 113.917 C 159.753 113.642,159.966 112.742,160.160 111.917 C 161.637 105.623,166.744 102.688,174.833 103.484 C 181.298 104.120,184.626 106.943,186.743 113.583 C 187.706 116.605,187.694 116.605,189.175 113.651 C 192.840 106.339,196.878 102.592,203.970 99.921 C 207.340 98.652,214.699 99.506,216.987 101.431 C 217.453 101.824,217.511 101.834,217.880 101.592 C 218.097 101.450,218.832 101.130,219.512 100.882 L 220.750 100.431 227.500 100.371 C 234.819 100.307,238.766 100.477,241.500 100.975 C 247.735 102.110,251.915 105.203,253.913 110.159 L 254.438 111.459 255.160 110.105 C 260.791 99.545,265.379 95.127,270.467 95.366 L 271.517 95.415 271.842 94.689 C 272.020 94.290,272.169 93.878,272.172 93.773 C 272.175 93.669,272.323 93.283,272.500 92.917 C 272.677 92.550,272.825 92.134,272.828 91.992 C 272.831 91.850,272.899 91.662,272.980 91.575 C 273.186 91.352,274.321 87.477,274.734 85.583 C 275.647 81.398,275.917 78.277,275.660 74.858 C 275.568 73.634,275.428 72.509,275.349 72.358 C 275.270 72.207,275.153 71.765,275.088 71.376 C 274.964 70.626,274.667 70.241,274.667 70.830 M269.792 100.121 C 270.090 100.158,270.577 100.158,270.875 100.121 C 271.173 100.084,270.929 100.053,270.333 100.053 C 269.737 100.053,269.494 100.084,269.792 100.121 M296.375 102.948 C 296.535 102.990,296.798 102.990,296.958 102.948 C 297.119 102.906,296.987 102.872,296.667 102.872 C 296.346 102.872,296.215 102.906,296.375 102.948 M302.292 102.956 C 302.773 102.990,303.560 102.990,304.042 102.956 C 304.523 102.923,304.129 102.895,303.167 102.895 C 302.204 102.895,301.810 102.923,302.292 102.956 M208.375 104.123 C 208.810 104.157,209.523 104.157,209.958 104.123 C 210.394 104.088,210.037 104.060,209.167 104.060 C 208.296 104.060,207.940 104.088,208.375 104.123 M376.042 104.121 C 376.385 104.157,376.948 104.157,377.292 104.121 C 377.635 104.085,377.354 104.056,376.667 104.056 C 375.979 104.056,375.698 104.085,376.042 104.121 M171.714 108.123 C 172.245 108.157,173.070 108.156,173.548 108.123 C 174.026 108.089,173.592 108.062,172.583 108.062 C 171.575 108.063,171.184 108.090,171.714 108.123 M389.214 110.083 C 389.216 110.542,389.248 110.709,389.286 110.456 C 389.325 110.203,389.324 109.828,389.284 109.623 C 389.244 109.418,389.213 109.625,389.214 110.083 M98.033 157.728 C 96.682 158.118,95.126 160.330,92.040 166.250 C 90.507 169.189,88.177 173.155,86.996 174.834 C 85.830 176.491,84.562 179.493,84.822 179.978 C 85.472 181.193,89.926 180.934,90.640 179.641 C 90.792 179.364,91.278 178.563,91.720 177.861 C 92.162 177.158,92.699 176.242,92.914 175.825 C 93.413 174.858,93.840 174.672,95.818 174.557 C 97.876 174.437,98.167 174.639,98.167 176.184 C 98.167 177.728,98.423 178.079,99.674 178.251 C 101.618 178.518,103.889 177.693,104.184 176.611 C 104.645 174.918,104.116 169.950,102.825 163.833 C 102.544 162.504,102.216 160.870,102.097 160.202 C 101.733 158.171,100.049 157.145,98.033 157.728 M110.701 157.742 C 108.323 158.318,107.408 161.110,106.491 170.583 C 106.394 171.592,106.018 173.901,105.657 175.715 C 104.569 181.178,104.831 181.725,108.408 181.454 C 111.011 181.257,111.401 180.596,112.169 175.083 C 112.610 171.914,113.052 170.000,113.342 170.000 C 113.519 170.000,114.126 171.639,114.423 172.920 C 115.594 177.968,116.052 178.596,118.750 178.847 C 121.844 179.134,122.742 178.215,123.157 174.333 C 123.352 172.511,124.915 164.316,125.538 161.853 C 126.158 159.398,125.738 158.944,122.920 159.026 C 119.980 159.110,119.481 159.561,118.750 162.799 C 118.001 166.117,117.624 166.336,117.252 163.667 C 116.532 158.490,114.648 156.786,110.701 157.742 M245.800 157.788 C 244.405 158.374,243.034 160.343,240.234 165.783 C 238.415 169.318,237.954 170.123,236.189 172.833 C 234.452 175.502,232.630 179.040,232.697 179.614 C 232.882 181.197,237.771 181.172,238.634 179.583 C 238.783 179.308,239.254 178.521,239.681 177.833 C 240.108 177.146,240.637 176.246,240.856 175.834 C 241.370 174.870,241.842 174.659,243.744 174.546 C 245.786 174.424,246.167 174.711,246.167 176.372 C 246.167 178.157,247.005 178.612,249.468 178.165 C 251.331 177.827,251.950 177.436,252.158 176.466 C 252.484 174.949,252.243 171.418,251.580 168.000 C 249.781 158.715,249.719 158.495,248.796 158.042 C 248.037 157.669,246.411 157.531,245.800 157.788 M263.431 157.752 C 258.508 158.766,254.869 163.781,253.484 171.466 C 252.706 175.775,253.611 179.484,255.654 180.366 C 261.017 182.680,267.766 178.493,269.811 171.583 C 270.920 167.838,270.352 167.462,264.250 167.900 C 261.618 168.089,261.194 168.485,260.917 171.020 C 260.795 172.135,260.979 172.401,261.984 172.561 C 263.448 172.796,263.093 173.856,261.247 174.759 C 258.851 175.931,258.306 173.400,259.855 168.298 C 261.321 163.475,264.009 161.781,265.426 164.789 C 266.092 166.204,266.730 166.352,268.649 165.536 C 270.302 164.834,270.750 164.174,270.749 162.442 C 270.748 158.968,267.532 156.907,263.431 157.752 M310.648 157.958 C 310.030 158.478,309.719 159.199,309.335 161.000 C 308.789 163.561,307.969 166.579,307.760 166.800 C 307.435 167.143,305.249 167.151,304.906 166.810 C 304.605 166.510,304.623 166.379,305.317 163.765 C 306.136 160.679,305.867 160.150,303.397 159.990 C 300.236 159.786,299.772 160.211,298.933 164.083 C 298.794 164.725,298.527 165.925,298.339 166.750 C 298.151 167.575,297.889 168.737,297.756 169.333 C 297.623 169.929,297.368 171.054,297.191 171.833 C 297.013 172.612,296.739 173.850,296.581 174.583 C 296.422 175.317,296.152 176.529,295.978 177.279 C 295.140 180.909,295.510 181.500,298.629 181.500 C 300.960 181.500,301.805 180.206,302.979 174.833 C 303.658 171.723,303.568 171.840,305.295 171.836 C 306.989 171.832,307.024 171.929,306.496 175.107 C 305.936 178.475,306.176 178.792,309.300 178.821 C 311.619 178.842,312.303 178.066,312.775 174.881 C 312.908 173.984,313.285 172.050,313.614 170.583 C 313.943 169.117,314.342 167.279,314.501 166.500 C 314.660 165.721,315.034 163.921,315.331 162.500 C 316.160 158.541,316.175 158.455,316.078 158.151 C 315.856 157.450,311.439 157.293,310.648 157.958 M347.041 157.751 C 344.743 158.387,344.382 159.296,342.906 168.167 C 342.508 170.560,342.097 172.310,341.302 175.000 C 340.782 176.759,339.906 177.386,339.259 176.463 C 338.644 175.585,338.918 173.472,340.291 168.500 C 342.655 159.945,342.558 159.379,338.755 159.533 C 335.828 159.651,335.778 159.713,334.462 164.888 C 331.177 177.802,331.562 180.883,336.623 182.177 C 342.686 183.727,347.400 179.445,348.651 171.250 C 348.749 170.608,349.099 169.108,349.428 167.917 C 351.836 159.200,351.969 158.223,350.792 157.858 C 349.788 157.546,347.969 157.494,347.041 157.751 M14.506 158.780 C 13.523 159.296,13.543 159.241,11.649 166.667 C 10.423 171.472,9.648 175.149,9.260 177.993 C 8.830 181.151,8.811 181.068,10.042 181.422 C 13.762 182.492,14.653 181.610,15.846 175.676 C 16.844 170.712,16.754 170.838,19.004 171.251 C 21.551 171.718,22.320 171.339,23.265 169.150 C 24.071 167.281,23.933 167.112,21.095 166.502 C 18.528 165.951,18.287 165.832,18.443 165.189 C 18.612 164.495,18.911 164.422,21.947 164.333 C 25.467 164.231,25.453 164.238,26.266 162.083 C 27.375 159.139,27.376 159.140,22.517 158.894 C 20.445 158.789,17.925 158.652,16.917 158.590 C 15.326 158.492,15.007 158.517,14.506 158.780 M156.712 158.994 C 155.317 159.704,154.596 160.767,154.102 162.845 C 153.249 166.431,152.774 168.408,152.482 169.583 C 151.523 173.446,151.427 174.059,151.422 176.359 L 151.417 178.635 151.925 179.263 C 153.074 180.683,156.889 181.198,159.917 180.342 C 166.501 178.479,169.229 172.891,165.545 168.813 L 164.958 168.163 165.713 167.355 C 167.997 164.914,167.936 161.399,165.580 159.695 C 164.457 158.882,163.539 158.678,160.515 158.567 L 157.750 158.466 156.712 158.994 M172.562 158.615 C 171.663 158.791,169.953 163.107,169.571 166.167 C 169.508 166.671,169.276 167.946,169.056 169.000 C 168.836 170.054,168.476 171.779,168.255 172.833 C 167.894 174.559,167.500 177.428,167.500 178.335 C 167.500 180.428,180.791 178.963,181.478 176.795 C 181.683 176.146,181.773 173.237,181.604 172.720 C 181.393 172.075,179.748 172.027,177.507 172.601 C 177.006 172.729,176.200 172.833,175.715 172.833 L 174.833 172.833 174.833 172.262 C 174.833 171.317,175.193 171.109,176.660 171.210 C 179.626 171.413,180.210 171.058,180.981 168.583 C 181.885 165.683,181.879 165.675,178.583 165.666 C 176.744 165.661,176.047 165.445,176.139 164.907 C 176.244 164.297,176.466 164.249,178.968 164.300 C 181.637 164.354,183.088 164.162,183.439 163.708 C 183.822 163.214,184.324 161.306,184.371 160.167 L 184.417 159.084 183.833 158.792 C 183.280 158.515,173.827 158.367,172.562 158.615 M206.043 158.683 C 205.092 158.963,203.505 163.149,203.078 166.500 C 203.014 167.004,202.632 168.954,202.229 170.833 C 201.309 175.129,200.867 178.478,201.192 178.689 C 203.029 179.879,208.446 179.530,213.532 177.894 C 215.060 177.402,215.096 177.335,215.257 174.667 C 215.413 172.092,214.740 171.740,211.217 172.556 C 210.557 172.708,209.629 172.833,209.154 172.833 L 208.290 172.833 208.391 172.209 C 208.542 171.280,208.787 171.182,210.894 171.207 C 213.681 171.239,213.785 171.160,214.598 168.372 C 215.372 165.722,215.323 165.667,212.240 165.667 C 210.357 165.667,209.665 165.500,209.669 165.046 C 209.676 164.307,209.814 164.275,213.119 164.262 C 216.923 164.247,216.981 164.225,217.494 162.564 C 218.052 160.756,218.121 159.324,217.669 158.917 C 217.253 158.542,207.205 158.340,206.043 158.683 M274.976 158.614 C 274.018 158.769,272.329 163.121,271.916 166.500 C 271.819 167.296,271.341 169.629,270.398 173.917 C 270.257 174.558,270.098 175.889,270.046 176.873 L 269.950 178.663 270.558 178.917 C 273.355 180.085,283.292 178.610,283.814 176.949 C 284.170 175.817,284.235 172.764,283.909 172.495 C 283.508 172.163,281.611 172.198,279.985 172.568 C 278.014 173.015,277.242 172.903,277.278 172.174 C 277.321 171.300,277.618 171.182,279.727 171.207 C 282.464 171.239,282.606 171.127,283.483 168.250 C 284.234 165.786,284.123 165.667,281.073 165.667 C 279.190 165.667,278.499 165.500,278.503 165.046 C 278.509 164.307,278.648 164.275,281.945 164.261 C 286.087 164.242,286.256 164.120,286.696 160.817 C 287.011 158.452,287.368 158.588,280.787 158.563 C 277.833 158.552,275.218 158.575,274.976 158.614 M371.333 158.605 C 370.613 158.852,370.326 159.110,370.077 159.731 C 369.239 161.825,368.451 164.627,368.076 166.843 C 367.844 168.215,367.620 169.430,367.578 169.544 C 367.274 170.366,366.303 175.724,366.220 177.040 L 366.117 178.663 366.683 178.898 C 369.062 179.886,374.994 179.297,379.363 177.639 C 380.392 177.248,380.836 173.004,379.912 172.398 C 379.456 172.099,377.454 172.169,376.543 172.515 C 376.302 172.607,375.519 172.727,374.803 172.782 L 373.500 172.883 373.500 172.197 C 373.500 171.273,373.738 171.176,375.934 171.204 C 378.620 171.239,378.886 171.039,379.658 168.408 C 380.429 165.777,380.374 165.710,377.386 165.683 C 375.355 165.665,374.665 165.503,374.669 165.046 C 374.676 164.300,374.862 164.247,377.286 164.302 C 381.344 164.394,382.257 164.105,382.573 162.631 C 383.136 160.010,383.161 159.436,382.734 159.000 L 382.326 158.583 376.955 158.551 C 374.000 158.534,371.471 158.558,371.333 158.605 M66.750 159.271 C 66.567 159.307,66.028 159.415,65.554 159.511 C 63.411 159.944,62.145 161.710,61.579 165.057 C 61.217 167.196,60.901 169.091,60.518 171.417 C 60.337 172.517,60.033 174.305,59.844 175.392 C 59.655 176.478,59.500 177.608,59.500 177.904 C 59.500 181.105,68.499 178.562,72.503 174.231 C 76.362 170.055,77.558 163.891,75.004 161.337 C 73.577 159.910,69.142 158.800,66.750 159.271 M131.500 159.277 C 128.364 159.765,127.031 161.305,126.405 165.167 C 125.948 167.980,125.509 170.611,125.264 172.000 C 123.983 179.275,124.034 179.480,127.083 179.278 C 132.398 178.927,138.228 174.768,140.209 169.917 C 141.658 166.367,141.428 162.599,139.674 161.145 C 138.048 159.797,134.041 158.882,131.500 159.277 M359.127 159.672 C 354.666 160.423,351.486 163.352,351.472 166.720 C 351.466 168.389,351.733 168.833,353.415 169.952 C 357.418 172.613,358.861 175.343,356.667 176.105 C 356.438 176.185,354.887 176.250,353.222 176.250 C 349.241 176.250,348.398 176.835,348.534 179.504 C 348.655 181.866,349.655 182.350,354.500 182.390 C 359.260 182.429,361.612 181.345,363.880 178.065 C 366.535 174.227,365.737 171.812,360.651 168.293 C 358.226 166.615,357.677 165.868,358.259 165.037 C 358.593 164.561,359.489 164.545,360.702 164.991 C 365.567 166.784,367.167 166.198,367.167 162.621 C 367.167 160.947,366.988 160.587,365.868 160.011 C 365.113 159.622,360.733 159.402,359.127 159.672 M185.497 160.145 C 184.917 160.456,184.917 160.458,184.967 161.520 C 185.041 163.115,185.661 168.833,185.831 169.500 C 185.912 169.821,186.135 171.246,186.326 172.667 C 187.423 180.841,187.624 181.250,190.555 181.250 C 193.125 181.250,193.607 180.970,194.935 178.706 C 195.459 177.814,196.686 175.883,197.662 174.417 C 202.996 166.399,203.534 164.461,200.807 163.101 C 199.803 162.601,199.405 162.573,198.250 162.921 C 196.517 163.443,196.426 163.527,195.495 165.461 C 192.845 170.963,192.795 171.034,192.522 169.638 C 192.427 169.149,192.302 168.075,192.245 167.250 C 191.944 162.905,191.212 160.807,189.766 160.151 C 188.798 159.711,186.312 159.708,185.497 160.145 M220.868 160.173 C 219.537 160.466,219.130 161.710,217.599 170.167 C 216.845 174.336,216.594 175.665,216.072 178.258 C 215.141 182.882,215.416 183.500,218.401 183.500 C 221.008 183.500,221.925 182.000,222.910 176.125 C 223.192 174.447,224.439 175.856,226.718 180.426 C 227.833 182.662,228.796 183.009,230.829 181.910 C 233.125 180.668,233.082 179.297,230.633 175.725 C 229.838 174.566,229.490 173.926,229.629 173.877 C 234.105 172.311,236.300 164.649,233.114 161.713 C 231.642 160.356,224.260 159.428,220.868 160.173 M33.057 160.732 C 32.492 160.942,31.657 161.382,31.202 161.709 C 30.746 162.036,30.143 162.423,29.862 162.568 C 26.319 164.401,24.083 168.666,24.083 173.592 L 24.083 176.268 24.714 177.544 C 27.834 183.856,39.606 179.842,41.425 171.848 C 41.863 169.920,41.858 165.502,41.416 164.471 C 39.972 161.103,36.380 159.497,33.057 160.732 M51.250 160.642 C 50.792 160.799,50.106 161.112,49.727 161.339 C 49.348 161.565,48.598 162.007,48.060 162.321 C 41.199 166.330,39.507 177.866,45.426 180.274 C 49.799 182.054,57.372 177.968,59.064 172.917 C 59.837 170.607,59.864 165.711,59.112 164.083 C 57.751 161.138,54.262 159.611,51.250 160.642 M323.414 161.087 C 316.456 162.616,312.342 171.161,315.362 177.810 C 317.585 182.705,326.223 181.124,330.583 175.024 C 332.651 172.130,332.948 165.673,331.134 163.036 C 329.878 161.211,326.608 160.385,323.414 161.087 M69.091 164.108 C 70.610 165.746,69.608 170.892,67.328 173.172 C 66.042 174.458,65.694 174.055,66.068 171.719 C 66.212 170.819,66.413 169.558,66.515 168.917 C 66.945 166.225,67.679 163.989,68.204 163.779 C 68.584 163.626,68.677 163.660,69.091 164.108 M133.911 164.062 C 135.791 165.943,133.532 173.833,131.112 173.833 C 130.840 173.833,130.558 173.144,130.721 172.880 C 130.769 172.803,130.892 172.105,130.995 171.329 C 131.800 165.259,132.747 162.899,133.911 164.062 M160.844 164.006 C 161.642 164.433,161.067 166.067,159.874 166.766 C 158.900 167.337,158.771 167.204,158.909 165.770 C 159.081 163.983,159.717 163.403,160.844 164.006 M35.390 165.842 C 36.609 166.801,36.180 170.192,34.383 173.799 C 32.162 178.259,29.224 175.484,30.803 170.417 C 31.905 166.878,34.022 164.766,35.390 165.842 M53.243 165.761 C 54.344 166.482,54.205 169.205,52.900 172.450 C 51.648 175.566,50.457 176.618,49.189 175.731 C 46.392 173.771,50.405 163.901,53.243 165.761 M225.870 165.674 C 228.784 166.483,227.676 170.235,224.366 170.764 L 223.669 170.876 223.822 170.396 C 223.906 170.132,224.147 168.923,224.358 167.708 C 224.775 165.305,224.735 165.359,225.870 165.674 M325.849 165.786 C 327.349 166.672,327.035 170.728,325.237 173.688 C 322.314 178.500,319.409 175.037,321.642 169.401 C 322.913 166.192,324.389 164.923,325.849 165.786 M97.115 167.375 C 97.604 168.463,98.029 170.204,97.849 170.385 C 97.642 170.592,95.350 170.584,95.143 170.375 C 94.974 170.206,96.500 167.000,96.749 167.000 C 96.858 167.000,97.022 167.169,97.115 167.375 M245.405 168.360 C 246.106 170.588,246.048 170.680,244.030 170.534 C 242.802 170.446,242.820 170.566,243.743 168.590 C 244.670 166.605,244.845 166.581,245.405 168.360 M160.469 172.673 C 161.457 173.594,160.281 175.000,158.523 175.000 C 157.657 175.000,157.494 173.924,158.168 172.664 C 158.424 172.186,159.952 172.192,160.469 172.673 " stroke="none" fill="#e49c44" fill-rule="evenodd"></path><path id="path3" d="M204.000 61.513 C 199.894 61.636,198.065 61.731,189.667 62.258 C 179.122 62.920,167.975 64.107,158.500 65.576 C 153.632 66.330,152.621 66.502,150.083 67.006 C 149.625 67.097,148.462 67.324,147.500 67.512 C 118.195 73.206,113.436 81.283,136.917 85.475 C 142.671 86.502,148.724 87.129,158.250 87.686 C 167.183 88.207,194.295 87.928,200.750 87.248 C 201.208 87.200,203.158 87.051,205.083 86.917 C 213.888 86.305,223.640 85.265,231.583 84.091 C 232.500 83.955,234.037 83.729,235.000 83.587 C 235.963 83.446,237.125 83.257,237.583 83.166 C 238.042 83.076,239.279 82.846,240.333 82.656 C 270.048 77.284,278.913 69.942,261.417 65.194 C 259.836 64.765,258.247 64.426,254.250 63.667 C 251.206 63.089,244.818 62.423,236.667 61.833 C 230.137 61.360,214.281 61.205,204.000 61.513 " stroke="none" fill="#603927" fill-rule="evenodd"></path><path id="path4" d="M159.458 87.784 C 159.665 87.824,160.002 87.824,160.208 87.784 C 160.415 87.745,160.246 87.712,159.833 87.712 C 159.421 87.712,159.252 87.745,159.458 87.784 M190.294 87.785 C 190.501 87.824,190.801 87.823,190.960 87.781 C 191.120 87.739,190.950 87.707,190.583 87.709 C 190.217 87.711,190.086 87.745,190.294 87.785 M13.759 133.208 C 13.724 133.323,13.273 135.179,12.755 137.333 C 12.238 139.487,11.579 142.000,11.291 142.917 C 9.694 148.003,11.326 149.893,17.072 149.615 C 23.300 149.313,25.191 146.974,26.595 137.833 C 26.897 135.866,27.305 133.870,27.507 133.375 L 27.660 133.000 20.741 133.000 C 15.352 133.000,13.809 133.046,13.759 133.208 M29.679 133.886 C 29.943 134.374,30.504 135.555,30.926 136.511 C 34.290 144.139,35.569 145.376,39.281 144.594 C 43.550 143.694,46.493 141.301,46.498 138.726 C 46.501 137.391,45.386 134.375,44.458 133.208 C 44.330 133.047,42.584 133.000,36.746 133.000 L 29.199 133.000 29.679 133.886 M51.214 134.042 C 49.852 136.171,49.333 137.008,49.333 137.073 C 49.333 137.109,48.984 137.727,48.557 138.445 C 44.706 144.918,44.653 147.061,48.333 147.412 C 48.929 147.468,50.184 147.594,51.121 147.690 C 54.955 148.083,56.987 147.197,58.244 144.585 C 58.566 143.915,59.227 142.777,59.713 142.055 C 60.955 140.210,61.732 138.908,62.409 137.538 C 63.480 135.371,64.307 135.044,68.917 134.969 C 73.297 134.897,73.458 135.030,73.661 138.908 C 73.826 142.054,73.995 142.270,76.492 142.547 C 79.509 142.882,83.219 142.103,85.307 140.696 C 85.868 140.317,86.203 138.648,86.291 135.792 L 86.376 133.000 69.128 133.000 L 51.880 133.000 51.214 134.042 M89.023 133.708 C 88.920 134.098,88.713 135.129,88.563 136.000 C 88.098 138.689,87.055 143.873,86.335 147.075 C 85.430 151.103,86.191 152.459,89.764 153.178 C 95.127 154.257,98.231 151.951,99.990 145.579 C 100.277 144.543,100.685 142.315,101.358 138.125 L 101.565 136.833 102.574 136.832 C 106.128 136.827,110.577 135.743,113.833 134.088 C 116.202 132.884,117.427 133.002,102.563 133.001 L 89.210 133.000 89.023 133.708 M122.172 134.708 C 120.092 138.036,118.600 140.773,117.260 143.721 C 116.181 146.093,116.965 147.198,119.956 147.517 C 125.270 148.084,127.038 147.834,128.525 146.308 C 128.970 145.851,129.333 145.388,129.333 145.279 C 129.333 144.950,130.139 143.527,131.468 141.507 C 132.159 140.457,133.049 138.957,133.445 138.174 C 134.893 135.315,135.508 135.035,140.463 134.983 C 144.494 134.941,144.809 135.204,144.945 138.733 C 145.080 142.225,145.375 142.528,148.750 142.633 C 151.636 142.723,153.820 142.279,156.022 141.156 C 157.185 140.562,157.667 138.731,157.667 134.905 L 157.667 133.000 140.453 133.000 L 123.240 133.000 122.172 134.708 M160.024 133.625 C 159.916 133.969,159.715 134.775,159.579 135.417 C 159.442 136.058,159.104 137.633,158.827 138.917 C 158.549 140.200,158.247 141.662,158.155 142.167 C 158.062 142.671,157.832 143.905,157.643 144.908 C 156.905 148.818,157.814 149.892,162.300 150.407 C 167.836 151.043,169.015 149.875,171.713 141.083 C 172.210 139.464,173.668 133.524,173.667 133.125 C 173.667 133.056,170.641 133.000,166.943 133.000 L 160.220 133.000 160.024 133.625 M177.501 133.125 C 177.510 134.987,178.692 138.669,179.592 139.640 C 179.816 139.882,180.000 140.141,180.000 140.216 C 180.000 140.717,181.619 141.083,183.833 141.083 C 186.889 141.083,187.291 140.859,190.167 137.552 C 190.661 136.983,192.667 133.414,192.667 133.103 C 192.667 133.046,189.254 133.000,185.083 133.000 C 180.912 133.000,177.500 133.056,177.501 133.125 M195.832 133.625 C 193.617 141.162,192.445 148.970,193.148 151.496 C 193.685 153.424,200.201 154.286,203.102 152.814 C 203.617 152.552,205.123 149.291,206.131 146.250 C 207.254 142.867,208.582 137.692,209.147 134.500 C 209.236 133.996,209.360 133.452,209.422 133.292 C 209.529 133.017,209.146 133.000,202.776 133.000 L 196.016 133.000 195.832 133.625 M213.353 133.625 C 213.265 133.969,213.144 134.587,213.083 135.000 C 213.022 135.412,212.905 136.012,212.822 136.333 C 212.740 136.654,212.481 137.967,212.247 139.250 C 212.013 140.533,211.747 141.921,211.656 142.333 C 209.609 151.597,209.745 152.334,213.674 153.243 C 220.641 154.855,223.940 150.905,225.501 139.083 C 225.801 136.814,225.659 137.000,227.086 137.000 C 228.785 137.000,233.361 136.197,234.583 135.684 C 234.767 135.607,235.367 135.373,235.917 135.164 C 237.048 134.733,239.359 133.617,239.889 133.246 C 240.201 133.028,238.714 133.000,226.877 133.000 L 213.513 133.000 213.353 133.625 M247.575 133.128 C 247.479 133.195,247.186 133.625,246.923 134.083 C 246.660 134.542,246.400 134.954,246.343 135.000 C 246.212 135.107,244.591 137.853,243.624 139.606 C 239.826 146.493,240.105 147.350,246.299 147.836 C 250.838 148.192,252.471 147.543,253.817 144.847 C 254.164 144.152,255.081 142.608,255.855 141.417 C 256.629 140.225,257.547 138.688,257.896 138.000 C 259.141 135.549,259.533 135.362,263.870 135.154 C 268.713 134.921,269.040 135.151,269.251 138.948 C 269.455 142.615,269.580 142.729,273.403 142.727 C 277.748 142.725,280.653 141.759,281.330 140.091 C 281.848 138.814,282.208 134.542,281.895 133.375 L 281.794 133.000 264.772 133.003 C 255.410 133.004,247.671 133.060,247.575 133.128 M284.446 133.125 C 284.406 133.194,284.174 134.300,283.931 135.583 C 283.689 136.867,283.418 138.217,283.331 138.583 C 283.243 138.950,283.051 139.887,282.903 140.667 C 282.755 141.446,282.536 142.533,282.416 143.083 C 280.988 149.641,281.377 150.666,285.549 151.339 C 292.070 152.390,295.098 148.934,296.575 138.750 C 297.165 134.690,297.009 135.062,298.180 134.917 L 299.110 134.802 300.253 136.594 C 301.844 139.090,303.441 141.942,305.047 145.157 C 307.094 149.252,307.884 149.835,310.607 149.263 C 316.220 148.082,318.345 144.745,316.242 140.417 C 315.607 139.111,314.754 137.785,312.816 135.093 C 312.284 134.354,311.730 133.581,311.583 133.375 L 311.318 133.000 297.919 133.000 C 290.549 133.000,284.487 133.056,284.446 133.125 M321.855 133.708 C 321.443 135.254,320.606 142.067,320.702 143.081 C 320.879 144.934,328.300 145.806,335.009 144.763 C 339.975 143.990,348.081 141.966,348.971 141.277 C 349.739 140.681,350.325 137.851,350.330 134.708 L 350.333 133.000 336.188 133.000 L 322.043 133.000 321.855 133.708 M368.964 133.865 C 370.822 137.593,367.923 139.440,361.177 138.826 C 354.887 138.254,352.983 138.646,351.459 140.828 C 349.816 143.180,349.744 146.520,351.287 148.800 C 352.650 150.813,355.113 151.374,364.394 151.784 C 370.975 152.075,377.545 148.761,381.972 142.917 C 384.413 139.695,385.823 135.639,385.269 133.432 L 385.160 133.000 376.846 133.000 L 368.533 133.000 368.964 133.865 " stroke="none" fill="#5d9443" fill-rule="evenodd"></path></g></svg>